<svg xmlns="http://www.w3.org/2000/svg" xmlns:xlink="http://www.w3.org/1999/xlink" width="500" zoomAndPan="magnify" viewBox="0 0 375 374.999991" height="500" preserveAspectRatio="xMidYMid meet" version="1.0"><defs><g/><clipPath id="b5d3bde6ce"><path d="M 134.03125 75.804688 L 241.28125 75.804688 L 241.28125 210.804688 L 134.03125 210.804688 Z M 134.03125 75.804688 " clip-rule="nonzero"/></clipPath></defs><path fill="#f2f2f2" d="M 147.925781 180.046875 C 147.324219 180.035156 146.84375 179.542969 146.851562 178.945312 C 146.863281 178.347656 147.355469 177.871094 147.960938 177.878906 L 148.011719 174.859375 C 145.734375 174.824219 143.855469 176.632812 143.816406 178.894531 C 143.78125 181.15625 145.597656 183.027344 147.875 183.066406 C 147.898438 183.066406 147.921875 183.066406 147.945312 183.066406 C 150.1875 183.066406 152.03125 181.269531 152.066406 179.03125 L 149.03125 178.980469 C 149.023438 179.578125 148.515625 180.0625 147.925781 180.046875 Z M 147.925781 180.046875 " fill-opacity="1" fill-rule="nonzero"/><path fill="#f2f2f2" d="M 180.6875 198.179688 C 180.863281 198.414062 180.933594 198.699219 180.894531 198.984375 C 180.851562 199.269531 180.699219 199.523438 180.464844 199.695312 C 179.984375 200.054688 179.300781 199.957031 178.941406 199.476562 C 178.582031 199 178.679688 198.316406 179.160156 197.960938 L 177.34375 195.542969 C 175.523438 196.898438 175.148438 199.472656 176.507812 201.285156 C 177.320312 202.359375 178.5625 202.929688 179.820312 202.929688 C 180.679688 202.929688 181.546875 202.664062 182.285156 202.113281 C 183.167969 201.457031 183.742188 200.5 183.898438 199.414062 C 184.054688 198.332031 183.777344 197.25 183.117188 196.371094 Z M 180.6875 198.179688 " fill-opacity="1" fill-rule="nonzero"/><path fill="#f2f2f2" d="M 225.953125 186.789062 C 226.515625 187.054688 227.113281 187.179688 227.699219 187.179688 C 229.25 187.179688 230.738281 186.304688 231.441406 184.820312 L 228.691406 183.535156 C 228.4375 184.078125 227.789062 184.3125 227.242188 184.054688 C 226.699219 183.804688 226.464844 183.15625 226.71875 182.613281 C 226.84375 182.351562 227.0625 182.15625 227.335938 182.054688 C 227.609375 181.957031 227.90625 181.972656 228.167969 182.09375 L 229.457031 179.363281 C 228.460938 178.894531 227.339844 178.84375 226.304688 179.214844 C 225.269531 179.589844 224.4375 180.339844 223.96875 181.332031 C 223.003906 183.378906 223.894531 185.828125 225.953125 186.789062 Z M 225.953125 186.789062 " fill-opacity="1" fill-rule="nonzero"/><path fill="#f2f2f2" d="M 172.757812 169.5 L 174.128906 171.863281 L 171.75 173.230469 L 170.378906 170.863281 Z M 172.757812 169.5 " fill-opacity="1" fill-rule="nonzero"/><path fill="#f2f2f2" d="M 200.691406 169.933594 L 203.070312 168.570312 L 204.441406 170.933594 L 202.0625 172.300781 Z M 200.691406 169.933594 " fill-opacity="1" fill-rule="nonzero"/><path fill="#f2f2f2" d="M 186.308594 165.863281 L 187.882812 163.628906 L 190.132812 165.195312 L 188.554688 167.429688 Z M 186.308594 165.863281 " fill-opacity="1" fill-rule="nonzero"/><path fill="#f2f2f2" d="M 195.367188 175.421875 C 195.203125 175.292969 194.957031 175.101562 194.890625 175.023438 C 194.859375 174.902344 194.839844 174.621094 194.828125 174.429688 C 194.777344 173.683594 194.699219 172.558594 193.796875 171.816406 C 192.890625 171.074219 191.765625 171.210938 191.019531 171.300781 C 190.832031 171.324219 190.558594 171.355469 190.433594 171.351562 C 190.316406 171.285156 190.089844 171.089844 189.9375 170.960938 C 189.347656 170.453125 188.535156 169.753906 187.402344 169.863281 C 186.265625 169.96875 185.601562 170.804688 185.117188 171.414062 C 184.988281 171.578125 184.792969 171.820312 184.714844 171.890625 C 184.59375 171.921875 184.3125 171.9375 184.117188 171.953125 C 183.371094 172.003906 182.238281 172.078125 181.492188 172.976562 C 180.742188 173.875 180.882812 174.996094 180.972656 175.738281 C 180.996094 175.921875 181.027344 176.195312 181.023438 176.320312 C 180.957031 176.4375 180.761719 176.660156 180.628906 176.8125 C 180.117188 177.402344 179.417969 178.207031 179.527344 179.335938 C 179.632812 180.464844 180.472656 181.125 181.085938 181.605469 C 181.25 181.738281 181.496094 181.929688 181.566406 182.007812 C 181.59375 182.128906 181.613281 182.410156 181.628906 182.601562 C 181.679688 183.34375 181.753906 184.46875 182.65625 185.214844 C 183.5625 185.957031 184.6875 185.820312 185.433594 185.726562 C 185.621094 185.707031 185.894531 185.671875 186.019531 185.675781 C 186.136719 185.746094 186.363281 185.9375 186.515625 186.070312 C 187.066406 186.542969 187.804688 187.179688 188.820312 187.179688 C 188.894531 187.179688 188.972656 187.175781 189.054688 187.167969 C 190.1875 187.0625 190.851562 186.226562 191.335938 185.613281 C 191.46875 185.453125 191.660156 185.207031 191.738281 185.140625 C 191.859375 185.109375 192.144531 185.089844 192.335938 185.078125 C 193.085938 185.027344 194.214844 184.953125 194.964844 184.054688 C 195.710938 183.152344 195.574219 182.035156 195.480469 181.292969 C 195.457031 181.109375 195.425781 180.835938 195.429688 180.707031 C 195.5 180.589844 195.691406 180.367188 195.824219 180.214844 C 196.335938 179.628906 197.035156 178.824219 196.929688 177.695312 C 196.820312 176.566406 195.980469 175.90625 195.367188 175.421875 Z M 193.527344 178.242188 C 193.171875 178.652344 192.726562 179.167969 192.523438 179.828125 C 192.324219 180.472656 192.398438 181.105469 192.46875 181.660156 C 192.480469 181.769531 192.5 181.910156 192.511719 182.035156 C 192.382812 182.046875 192.242188 182.058594 192.132812 182.066406 C 191.570312 182.105469 190.929688 182.144531 190.332031 182.460938 C 189.71875 182.785156 189.292969 183.316406 188.957031 183.742188 C 188.894531 183.820312 188.820312 183.910156 188.75 183.996094 C 188.664062 183.925781 188.574219 183.847656 188.5 183.785156 C 188.085938 183.429688 187.570312 182.988281 186.90625 182.785156 C 186.597656 182.691406 186.292969 182.660156 185.996094 182.660156 C 185.667969 182.660156 185.355469 182.699219 185.0625 182.730469 C 184.953125 182.746094 184.8125 182.761719 184.6875 182.773438 C 184.675781 182.648438 184.664062 182.511719 184.65625 182.398438 C 184.617188 181.839844 184.574219 181.203125 184.257812 180.609375 C 183.933594 179.996094 183.398438 179.578125 182.96875 179.238281 C 182.894531 179.179688 182.800781 179.105469 182.714844 179.035156 C 182.785156 178.949219 182.863281 178.859375 182.925781 178.789062 C 183.285156 178.375 183.730469 177.863281 183.933594 177.203125 C 184.132812 176.558594 184.054688 175.925781 183.984375 175.371094 C 183.972656 175.257812 183.957031 175.121094 183.945312 174.996094 C 184.070312 174.980469 184.210938 174.972656 184.324219 174.964844 C 184.886719 174.925781 185.523438 174.882812 186.125 174.570312 C 186.738281 174.246094 187.160156 173.714844 187.5 173.289062 C 187.558594 173.210938 187.632812 173.121094 187.703125 173.035156 C 187.789062 173.105469 187.878906 173.179688 187.953125 173.246094 C 188.367188 173.601562 188.882812 174.042969 189.546875 174.246094 C 190.195312 174.445312 190.832031 174.367188 191.390625 174.296875 C 191.503906 174.285156 191.640625 174.265625 191.769531 174.257812 C 191.78125 174.382812 191.789062 174.523438 191.796875 174.632812 C 191.835938 175.191406 191.878906 175.828125 192.195312 176.421875 C 192.523438 177.035156 193.054688 177.453125 193.484375 177.792969 C 193.5625 177.851562 193.652344 177.925781 193.738281 177.996094 C 193.667969 178.082031 193.589844 178.171875 193.527344 178.242188 Z M 193.527344 178.242188 " fill-opacity="1" fill-rule="nonzero"/><path fill="#f2f2f2" d="M 146.574219 116.9375 C 147.71875 118.539062 150.855469 120.359375 159.085938 121.902344 C 163.148438 122.664062 167.910156 123.246094 173.089844 123.628906 C 177.804688 123.976562 182.867188 124.160156 188.074219 124.160156 C 193.207031 124.160156 198.195312 123.980469 202.847656 123.644531 C 208.113281 123.261719 212.949219 122.675781 217.066406 121.902344 C 225.292969 120.359375 228.429688 118.539062 229.574219 116.9375 C 231.265625 115.679688 232.117188 114.296875 232.117188 112.785156 C 232.117188 109.28125 227.53125 106.4375 218.488281 104.339844 C 217.566406 104.125 216.605469 103.925781 215.621094 103.734375 C 213.78125 100.292969 211.171875 97.214844 207.988281 94.722656 L 208.011719 94.691406 L 206.808594 93.839844 C 206.347656 93.515625 205.875 93.199219 205.394531 92.898438 C 205.085938 92.707031 204.777344 92.523438 204.464844 92.34375 C 201.324219 90.53125 197.832031 89.246094 194.214844 88.589844 C 194.214844 88.589844 194.210938 88.589844 194.210938 88.589844 L 192.757812 88.324219 L 192.75 88.359375 C 191.28125 88.160156 189.785156 88.058594 188.285156 88.058594 C 176.6875 88.058594 166.121094 94.136719 161.003906 103.640625 C 159.847656 103.859375 158.730469 104.089844 157.664062 104.339844 C 148.621094 106.4375 144.035156 109.277344 144.035156 112.785156 C 144.035156 114.296875 144.886719 115.679688 146.574219 116.9375 Z M 217.796875 118.292969 C 213.148438 119.371094 207.585938 120.164062 201.515625 120.632812 C 201.5625 120.460938 201.59375 120.28125 201.59375 120.085938 C 201.59375 118.265625 199.496094 117.117188 194.996094 116.464844 L 194.558594 119.453125 C 195.929688 119.652344 196.902344 119.882812 197.5625 120.09375 C 195.921875 120.601562 192.699219 121.140625 188.074219 121.140625 C 183.4375 121.140625 180.207031 120.597656 178.570312 120.085938 C 180.207031 119.578125 183.4375 119.03125 188.074219 119.03125 C 188.765625 119.03125 189.460938 119.046875 190.136719 119.070312 L 190.253906 116.054688 C 189.539062 116.027344 188.804688 116.011719 188.074219 116.011719 C 184.765625 116.011719 181.636719 116.292969 179.269531 116.796875 C 177.246094 117.230469 174.558594 118.042969 174.558594 120.085938 C 174.558594 120.28125 174.589844 120.460938 174.632812 120.632812 C 168.5625 120.164062 163 119.371094 158.351562 118.292969 C 153.585938 117.1875 150.691406 115.996094 149.03125 114.960938 C 149.253906 114.59375 150.722656 112.871094 159.019531 111.246094 C 159.992188 113.679688 162.382812 115.371094 165.113281 115.371094 C 168.484375 115.371094 171.269531 112.832031 171.636719 109.574219 C 174.886719 109.304688 178.324219 109.113281 181.882812 109.007812 C 182.617188 111.8125 185.195312 113.902344 188.226562 113.902344 C 191.253906 113.902344 193.828125 111.816406 194.566406 109.019531 C 197.941406 109.121094 201.203125 109.300781 204.300781 109.558594 C 204.660156 112.824219 207.445312 115.371094 210.824219 115.371094 C 213.574219 115.371094 215.972656 113.664062 216.933594 111.207031 C 225.402344 112.84375 226.894531 114.589844 227.121094 114.960938 C 225.457031 115.996094 222.5625 117.1875 217.796875 118.292969 Z M 162.125 110.699219 C 164.117188 110.382812 166.246094 110.109375 168.488281 109.871094 C 168.042969 111.304688 166.699219 112.351562 165.113281 112.351562 C 163.867188 112.351562 162.753906 111.695312 162.125 110.699219 Z M 185.078125 108.941406 C 186.074219 108.929688 187.070312 108.917969 188.074219 108.917969 C 189.183594 108.917969 190.28125 108.929688 191.371094 108.945312 C 190.789062 110.089844 189.59375 110.882812 188.226562 110.882812 C 186.859375 110.882812 185.664062 110.089844 185.078125 108.941406 Z M 207.445312 109.851562 C 209.695312 110.082031 211.832031 110.355469 213.832031 110.671875 C 213.207031 111.683594 212.085938 112.351562 210.824219 112.351562 C 209.230469 112.351562 207.878906 111.296875 207.445312 109.851562 Z M 195.484375 91.953125 C 195.753906 92.019531 196.023438 92.089844 196.289062 92.164062 C 196.375 92.1875 196.457031 92.210938 196.542969 92.238281 C 196.863281 92.328125 197.179688 92.425781 197.496094 92.527344 C 197.539062 92.542969 197.582031 92.558594 197.625 92.570312 C 197.902344 92.664062 198.179688 92.761719 198.453125 92.863281 C 198.539062 92.894531 198.625 92.925781 198.714844 92.957031 C 199.015625 93.070312 199.3125 93.1875 199.609375 93.308594 C 199.621094 93.316406 199.636719 93.320312 199.648438 93.324219 C 199.953125 93.453125 200.257812 93.589844 200.558594 93.726562 C 200.640625 93.761719 200.722656 93.800781 200.804688 93.839844 C 201.0625 93.960938 201.320312 94.085938 201.574219 94.214844 C 201.621094 94.238281 201.667969 94.261719 201.714844 94.285156 C 202.007812 94.433594 202.296875 94.589844 202.582031 94.75 C 202.65625 94.792969 202.730469 94.832031 202.804688 94.875 C 203.039062 95.011719 203.273438 95.148438 203.503906 95.289062 C 203.546875 95.316406 203.589844 95.339844 203.632812 95.367188 C 202.734375 96.085938 201.609375 96.492188 200.421875 96.492188 C 197.777344 96.492188 195.597656 94.484375 195.34375 91.917969 C 195.390625 91.929688 195.4375 91.941406 195.484375 91.953125 Z M 188.285156 91.078125 C 189.628906 91.078125 190.96875 91.167969 192.285156 91.34375 C 192.285156 91.367188 192.285156 91.394531 192.285156 91.417969 C 192.285156 95.882812 195.933594 99.511719 200.421875 99.511719 C 202.605469 99.511719 204.664062 98.644531 206.171875 97.140625 C 208.332031 98.839844 210.191406 100.839844 211.675781 103.050781 C 204.71875 101.984375 196.582031 101.410156 188.074219 101.410156 C 182.324219 101.410156 176.742188 101.671875 171.582031 102.171875 C 172.097656 101.554688 172.65625 100.972656 173.261719 100.433594 L 171.238281 98.183594 C 169.785156 99.476562 168.546875 100.964844 167.546875 102.621094 C 166.660156 102.734375 165.792969 102.855469 164.941406 102.980469 C 169.882812 95.65625 178.683594 91.078125 188.285156 91.078125 Z M 158.351562 107.28125 C 166.273438 105.441406 176.828125 104.429688 188.074219 104.429688 C 199.320312 104.429688 209.875 105.441406 217.796875 107.28125 C 225.976562 109.175781 228.648438 111.328125 229.027344 112.496094 C 227.539062 111.058594 224.238281 109.503906 217.066406 108.160156 C 209.308594 106.703125 199.011719 105.902344 188.074219 105.902344 C 177.140625 105.902344 166.84375 106.703125 159.085938 108.160156 C 151.914062 109.503906 148.609375 111.058594 147.121094 112.496094 C 147.503906 111.328125 150.171875 109.175781 158.351562 107.28125 Z M 158.351562 107.28125 " fill-opacity="1" fill-rule="nonzero"/><path fill="#f2f2f2" d="M 181.1875 96.148438 C 182.941406 95.660156 184.757812 95.46875 186.585938 95.578125 L 186.769531 92.566406 C 184.605469 92.433594 182.453125 92.660156 180.371094 93.238281 C 177.921875 93.921875 175.65625 95.058594 173.640625 96.625 L 175.511719 99.003906 C 177.210938 97.683594 179.121094 96.722656 181.1875 96.148438 Z M 181.1875 96.148438 " fill-opacity="1" fill-rule="nonzero"/><path fill="#f2f2f2" d="M 186.558594 131.003906 L 189.59375 131.003906 L 189.59375 144.4375 L 186.558594 144.4375 Z M 186.558594 131.003906 " fill-opacity="1" fill-rule="nonzero"/><path fill="#f2f2f2" d="M 186.558594 148.8125 L 189.59375 148.8125 L 189.59375 155.605469 L 186.558594 155.605469 Z M 186.558594 148.8125 " fill-opacity="1" fill-rule="nonzero"/><path fill="#f2f2f2" d="M 197.703125 143.25 L 194.679688 143.523438 L 193.996094 136.050781 L 197.019531 135.777344 Z M 197.703125 143.25 " fill-opacity="1" fill-rule="nonzero"/><path fill="#f2f2f2" d="M 197.945312 145.878906 L 199.261719 160.28125 L 196.238281 160.554688 L 194.921875 146.152344 Z M 197.945312 145.878906 " fill-opacity="1" fill-rule="nonzero"/><path fill="#f2f2f2" d="M 182.226562 146.425781 L 179.203125 146.152344 L 179.886719 138.675781 L 182.910156 138.949219 Z M 182.226562 146.425781 " fill-opacity="1" fill-rule="nonzero"/><path fill="#f2f2f2" d="M 178.960938 148.78125 L 181.984375 149.054688 L 180.667969 163.457031 L 177.644531 163.183594 Z M 178.960938 148.78125 " fill-opacity="1" fill-rule="nonzero"/><path fill="#f2f2f2" d="M 163.011719 131.867188 L 165.976562 132.519531 L 164.34375 139.84375 L 161.378906 139.191406 Z M 163.011719 131.867188 " fill-opacity="1" fill-rule="nonzero"/><path fill="#f2f2f2" d="M 160.804688 141.761719 L 163.769531 142.417969 L 160.621094 156.535156 L 157.65625 155.882812 Z M 160.804688 141.761719 " fill-opacity="1" fill-rule="nonzero"/><path fill="#f2f2f2" d="M 225.097656 97.246094 C 228.109375 97.246094 230.5625 94.808594 230.5625 91.8125 C 230.5625 88.816406 228.109375 86.378906 225.097656 86.378906 C 222.082031 86.378906 219.632812 88.816406 219.632812 91.8125 C 219.632812 94.808594 222.082031 97.246094 225.097656 97.246094 Z M 225.097656 89.398438 C 226.4375 89.398438 227.527344 90.480469 227.527344 91.8125 C 227.527344 93.144531 226.4375 94.226562 225.097656 94.226562 C 223.757812 94.226562 222.667969 93.144531 222.667969 91.8125 C 222.667969 90.480469 223.757812 89.398438 225.097656 89.398438 Z M 225.097656 89.398438 " fill-opacity="1" fill-rule="nonzero"/><path fill="#f2f2f2" d="M 215.03125 139.164062 L 212.074219 139.84375 L 210.375 132.53125 L 213.332031 131.851562 Z M 215.03125 139.164062 " fill-opacity="1" fill-rule="nonzero"/><path fill="#f2f2f2" d="M 215.621094 141.730469 L 218.890625 155.820312 L 215.933594 156.5 L 212.664062 142.40625 Z M 215.621094 141.730469 " fill-opacity="1" fill-rule="nonzero"/><path fill="#f2f2f2" d="M 146.539062 88.890625 L 149.285156 88.890625 L 149.285156 91.621094 L 146.539062 91.621094 Z M 146.539062 88.890625 " fill-opacity="1" fill-rule="nonzero"/><path fill="#f2f2f2" d="M 160.003906 83.648438 L 162.753906 83.648438 L 162.753906 86.378906 L 160.003906 86.378906 Z M 160.003906 83.648438 " fill-opacity="1" fill-rule="nonzero"/><path fill="#f2f2f2" d="M 232.117188 132.199219 L 234.863281 132.199219 L 234.863281 134.929688 L 232.117188 134.929688 Z M 232.117188 132.199219 " fill-opacity="1" fill-rule="nonzero"/><path fill="#f2f2f2" d="M 142.445312 139.820312 L 145.191406 139.820312 L 145.191406 142.550781 L 142.445312 142.550781 Z M 142.445312 139.820312 " fill-opacity="1" fill-rule="nonzero"/><path fill="#f2f2f2" d="M 150.695312 146.359375 L 153.441406 146.359375 L 153.441406 149.089844 L 150.695312 149.089844 Z M 150.695312 146.359375 " fill-opacity="1" fill-rule="nonzero"/><path fill="#f2f2f2" d="M 223.578125 137.316406 L 226.328125 137.316406 L 226.328125 140.046875 L 223.578125 140.046875 Z M 223.578125 137.316406 " fill-opacity="1" fill-rule="nonzero"/><path fill="#f2f2f2" d="M 144.578125 153.050781 L 147.324219 153.050781 L 147.324219 155.78125 L 144.578125 155.78125 Z M 144.578125 153.050781 " fill-opacity="1" fill-rule="nonzero"/><path fill="#f2f2f2" d="M 221.003906 126.539062 L 223.753906 126.539062 L 223.753906 129.269531 L 221.003906 129.269531 Z M 221.003906 126.539062 " fill-opacity="1" fill-rule="nonzero"/><path fill="#f2f2f2" d="M 155.363281 94.746094 L 158.109375 94.746094 L 158.109375 97.476562 L 155.363281 97.476562 Z M 155.363281 94.746094 " fill-opacity="1" fill-rule="nonzero"/><g clip-path="url(#b5d3bde6ce)"><path fill="#f2f2f2" d="M 134.070312 75.804688 L 134.070312 210.804688 L 241.242188 210.804688 L 241.242188 75.804688 Z M 238.207031 170.792969 C 231.277344 166.480469 222.222656 163.164062 211.765625 161.125 L 205.429688 128.257812 L 202.449219 128.824219 L 214.074219 189.132812 L 217.058594 188.566406 L 212.382812 164.324219 C 222.808594 166.476562 231.675781 169.9375 238.207031 174.398438 L 238.207031 207.785156 L 137.105469 207.785156 L 137.105469 174.976562 C 143.617188 170.300781 152.988281 166.558594 163.765625 164.324219 L 159.09375 188.566406 L 162.074219 189.136719 L 173.699219 128.828125 L 170.71875 128.257812 L 164.382812 161.121094 C 153.621094 163.222656 144.09375 166.792969 137.105469 171.320312 L 137.105469 78.824219 L 238.207031 78.824219 Z M 238.207031 170.792969 " fill-opacity="1" fill-rule="nonzero"/></g><g fill="#f2f2f2" fill-opacity="1"><g transform="translate(143.48437, 257.55593)"><g><path d="M 0.898438 -13.066406 C 0.898438 -13.320312 0.9375 -13.570312 1.007812 -13.824219 C 0.828125 -13.894531 1.261719 -15.480469 1.332031 -15.730469 C 1.585938 -16.882812 2.050781 -18 2.59375 -19.007812 C 2.84375 -19.402344 3.097656 -19.835938 3.382812 -20.195312 C 3.996094 -21.023438 4.753906 -21.851562 5.542969 -22.5 C 5.652344 -22.609375 5.761719 -22.679688 5.867188 -22.753906 C 5.902344 -22.789062 5.976562 -22.824219 6.011719 -22.894531 L 7.128906 -23.652344 C 7.199219 -23.6875 7.34375 -23.6875 7.414062 -23.761719 C 7.523438 -23.796875 7.632812 -23.867188 7.738281 -23.902344 C 7.777344 -23.941406 7.777344 -24.011719 7.8125 -24.011719 C 7.8125 -24.046875 7.847656 -24.011719 7.882812 -24.011719 C 7.957031 -24.085938 8.0625 -24.15625 8.171875 -24.191406 C 8.242188 -24.265625 8.351562 -24.265625 8.425781 -24.335938 C 8.496094 -24.335938 8.53125 -24.40625 8.566406 -24.40625 C 8.746094 -24.480469 8.929688 -24.515625 9.070312 -24.589844 C 9.214844 -24.625 9.394531 -24.660156 9.539062 -24.730469 C 9.613281 -24.730469 9.648438 -24.839844 9.71875 -24.839844 C 9.757812 -24.875 9.828125 -24.875 9.898438 -24.875 C 9.9375 -24.910156 10.007812 -24.875 10.042969 -24.875 C 10.117188 -24.910156 10.1875 -24.910156 10.261719 -24.949219 C 10.332031 -24.949219 10.402344 -25.019531 10.476562 -25.054688 C 10.546875 -25.09375 10.621094 -25.09375 10.691406 -25.09375 L 11.410156 -25.273438 C 11.554688 -25.273438 11.734375 -25.273438 11.914062 -25.308594 C 12.023438 -25.308594 12.132812 -25.378906 12.238281 -25.378906 C 12.421875 -25.414062 12.5625 -25.378906 12.742188 -25.414062 C 13.140625 -25.453125 13.535156 -25.34375 13.753906 -24.984375 C 13.824219 -24.875 13.824219 -24.730469 13.859375 -24.625 C 13.933594 -24.011719 13.96875 -23.398438 13.96875 -22.789062 C 13.96875 -22.429688 13.96875 -22.066406 13.933594 -21.742188 C 13.894531 -21.058594 13.753906 -20.410156 12.960938 -20.304688 L 12.816406 -20.304688 C 12.742188 -20.269531 12.671875 -20.304688 12.601562 -20.304688 L 12.097656 -20.195312 C 10.007812 -19.726562 8.0625 -18.324219 7.019531 -16.453125 C 6.949219 -16.308594 6.949219 -16.164062 6.875 -16.019531 L 6.730469 -15.769531 C 6.730469 -15.695312 6.804688 -15.660156 6.804688 -15.625 C 6.804688 -15.550781 6.769531 -15.480469 6.839844 -15.40625 C 6.875 -15.335938 6.949219 -15.265625 7.019531 -15.226562 C 7.164062 -15.191406 7.273438 -15.226562 7.414062 -15.226562 C 7.558594 -15.226562 7.738281 -15.191406 7.882812 -15.191406 C 7.921875 -15.191406 7.921875 -15.191406 7.921875 -15.191406 L 8.027344 -15.191406 C 8.0625 -15.226562 8.101562 -15.15625 8.136719 -15.15625 C 8.820312 -15.15625 9.503906 -15.15625 10.1875 -15.191406 C 10.546875 -15.191406 10.871094 -15.191406 11.195312 -15.226562 C 11.484375 -15.226562 11.773438 -15.15625 12.058594 -15.15625 L 12.132812 -15.15625 C 12.382812 -15.15625 12.742188 -15.15625 12.960938 -15.085938 C 12.996094 -15.046875 12.996094 -15.046875 13.03125 -15.046875 C 13.246094 -14.902344 13.390625 -14.6875 13.429688 -14.4375 C 13.464844 -14.292969 13.464844 -14.113281 13.464844 -13.96875 C 13.464844 -13.714844 13.464844 -13.429688 13.464844 -13.175781 L 13.464844 -11.84375 C 13.464844 -11.808594 13.429688 -11.773438 13.429688 -11.773438 C 13.429688 -11.734375 13.5 -11.699219 13.5 -11.628906 C 13.5 -11.230469 13.5 -10.585938 13.140625 -10.296875 C 12.851562 -10.078125 12.5625 -10.042969 12.238281 -10.042969 C 12.023438 -10.042969 11.84375 -10.042969 11.628906 -10.078125 C 10.980469 -10.117188 10.261719 -10.042969 9.613281 -10.042969 C 8.890625 -10.042969 8.207031 -10.078125 7.523438 -10.078125 C 7.378906 -10.078125 7.199219 -10.078125 7.054688 -10.007812 C 6.949219 -9.972656 6.875 -9.898438 6.839844 -9.828125 C 6.769531 -9.757812 6.730469 -9.683594 6.730469 -9.613281 C 6.730469 -9.539062 6.695312 -9.46875 6.730469 -9.394531 C 6.730469 -9.289062 6.804688 -9.214844 6.875 -9.109375 C 6.875 -9.070312 6.875 -9.035156 6.875 -9 L 7.128906 -8.566406 C 7.234375 -8.351562 7.453125 -8.171875 7.597656 -7.957031 C 7.847656 -7.597656 8.136719 -7.34375 8.460938 -7.019531 C 8.605469 -6.910156 8.675781 -6.730469 8.820312 -6.589844 C 9.179688 -6.300781 9.71875 -6.046875 10.152344 -5.796875 C 10.765625 -5.472656 11.449219 -5.183594 12.132812 -5.039062 C 12.203125 -5.003906 12.3125 -5.003906 12.421875 -5.003906 C 12.5625 -4.96875 12.707031 -4.96875 12.816406 -4.933594 C 12.996094 -4.894531 13.140625 -4.859375 13.320312 -4.789062 C 13.429688 -4.753906 13.5 -4.679688 13.609375 -4.570312 C 13.679688 -4.5 13.753906 -4.464844 13.789062 -4.390625 C 13.894531 -4.210938 13.894531 -4.105469 13.894531 -3.996094 C 13.894531 -3.925781 13.894531 -3.851562 13.894531 -3.78125 L 13.894531 -3.636719 C 13.933594 -3.347656 13.933594 -3.058594 13.933594 -2.773438 C 13.933594 -2.449219 13.933594 -2.160156 13.894531 -1.835938 C 13.894531 -1.546875 13.894531 -1.261719 13.859375 -0.972656 C 13.859375 -0.757812 13.894531 -0.433594 13.824219 -0.253906 C 13.824219 -0.179688 13.753906 -0.109375 13.714844 -0.0351562 L 13.609375 0.0351562 C 13.570312 0.0703125 13.464844 0.109375 13.429688 0.109375 C 13.210938 0.214844 13.03125 0.253906 12.851562 0.253906 C 12.707031 0.253906 12.5625 0.253906 12.457031 0.179688 C 12.3125 0.144531 12.167969 0.179688 12.023438 0.179688 C 11.808594 0.144531 11.59375 0.109375 11.410156 0.0351562 C 11.375 0.0351562 11.304688 0.0703125 11.269531 0.0351562 C 11.125 0.0351562 11.015625 -0.0703125 10.871094 -0.109375 C 10.800781 -0.144531 10.691406 -0.0703125 10.585938 -0.109375 C 10.402344 -0.144531 10.1875 -0.214844 10.007812 -0.289062 C 9.648438 -0.433594 9.289062 -0.613281 8.929688 -0.71875 C 8.605469 -0.828125 8.28125 -0.898438 7.992188 -1.042969 C 7.921875 -1.078125 7.847656 -1.152344 7.921875 -1.222656 C 7.703125 -1.042969 6.625 -1.945312 6.480469 -2.050781 C 6.335938 -2.125 6.191406 -2.160156 6.046875 -2.269531 C 5.941406 -2.375 5.796875 -2.484375 5.652344 -2.59375 C 5.363281 -2.808594 5.113281 -3.132812 4.824219 -3.382812 C 4.320312 -3.816406 3.816406 -4.429688 3.382812 -4.96875 L 3.097656 -5.363281 C 2.953125 -5.578125 2.878906 -5.832031 2.734375 -6.085938 C 2.664062 -6.191406 2.59375 -6.265625 2.519531 -6.371094 L 2.484375 -6.515625 C 2.269531 -6.875 2.015625 -7.273438 1.871094 -7.632812 C 1.726562 -8.101562 1.511719 -8.53125 1.402344 -8.964844 L 1.296875 -9.324219 C 1.261719 -9.433594 1.296875 -9.539062 1.261719 -9.648438 C 1.222656 -9.792969 1.222656 -9.898438 1.222656 -10.042969 C 1.1875 -10.1875 1.078125 -10.296875 1.042969 -10.441406 C 1.007812 -10.65625 1.007812 -10.871094 0.972656 -11.089844 C 0.9375 -11.375 0.9375 -11.628906 0.9375 -11.914062 C 0.898438 -12.277344 0.898438 -12.671875 0.898438 -13.066406 Z M 0.898438 -13.066406 "/></g></g></g><g fill="#f2f2f2" fill-opacity="1"><g transform="translate(159.252405, 257.55593)"><g><path d="M 16.199219 -12.601562 C 16.199219 -11.808594 16.234375 -11.015625 16.234375 -10.1875 C 16.234375 -9.394531 16.273438 -8.605469 16.273438 -7.8125 L 16.273438 -5.398438 C 16.273438 -4.609375 16.234375 -3.78125 16.234375 -2.988281 C 16.234375 -2.195312 16.199219 -1.402344 16.199219 -0.574219 C 16.199219 -0.503906 16.273438 -0.394531 16.273438 -0.289062 C 16.273438 -0.179688 16.128906 -0.0351562 16.019531 0 L 15.875 0 C 15.625 0.0351562 15.335938 0.0351562 15.085938 0.0351562 C 14.003906 0.0351562 12.960938 -0.0351562 11.878906 -0.0351562 C 11.773438 -0.0351562 11.628906 0.0351562 11.519531 0 C 11.410156 -0.0351562 11.339844 -0.179688 11.339844 -0.324219 C 11.304688 -0.433594 11.230469 -0.574219 11.230469 -0.683594 C 11.230469 -1.402344 11.269531 -2.089844 11.269531 -2.808594 C 11.269531 -3.527344 11.339844 -4.210938 11.339844 -4.933594 C 11.339844 -5.003906 11.304688 -5.074219 11.304688 -5.113281 C 11.269531 -5.21875 11.160156 -5.257812 11.089844 -5.292969 L 10.871094 -5.292969 C 9.613281 -5.292969 8.386719 -5.363281 7.164062 -5.363281 C 7.09375 -5.363281 7.019531 -5.363281 6.949219 -5.328125 C 6.839844 -5.328125 6.769531 -5.257812 6.769531 -5.148438 C 6.730469 -5.074219 6.730469 -4.96875 6.730469 -4.894531 C 6.730469 -4.535156 6.695312 -4.175781 6.695312 -3.851562 C 6.695312 -2.734375 6.730469 -1.621094 6.730469 -0.503906 C 6.730469 -0.433594 6.769531 -0.359375 6.769531 -0.289062 C 6.730469 -0.109375 6.589844 0 6.40625 0.0351562 C 6.265625 0.0351562 6.121094 0 5.976562 0 C 4.789062 0 3.601562 -0.0351562 2.410156 -0.0351562 C 2.304688 -0.0351562 2.195312 -0.0351562 2.089844 -0.0703125 C 1.980469 -0.109375 1.871094 -0.179688 1.871094 -0.289062 C 1.835938 -0.394531 1.800781 -0.503906 1.800781 -0.613281 C 1.800781 -1.511719 1.800781 -2.410156 1.800781 -3.3125 L 1.800781 -6.011719 C 1.800781 -6.910156 1.871094 -7.8125 1.871094 -8.710938 C 1.871094 -9.613281 1.835938 -10.511719 1.835938 -11.410156 C 1.835938 -12.277344 1.835938 -13.175781 1.835938 -14.074219 L 1.835938 -14.722656 C 1.871094 -14.902344 1.871094 -15.085938 1.90625 -15.265625 C 1.90625 -15.445312 1.945312 -15.660156 1.945312 -15.839844 C 1.980469 -16.273438 2.015625 -16.703125 2.125 -17.101562 C 2.160156 -17.351562 2.269531 -17.605469 2.339844 -17.855469 C 2.410156 -18.144531 2.484375 -18.394531 2.59375 -18.683594 C 2.664062 -18.9375 2.773438 -19.1875 2.878906 -19.441406 C 2.953125 -19.585938 2.953125 -19.726562 3.023438 -19.871094 C 3.132812 -20.089844 3.238281 -20.269531 3.347656 -20.449219 C 3.421875 -20.59375 3.457031 -20.734375 3.527344 -20.84375 C 3.601562 -20.953125 3.707031 -21.023438 3.78125 -21.132812 C 3.886719 -21.277344 3.925781 -21.421875 4.03125 -21.527344 L 4.390625 -21.960938 C 4.609375 -22.210938 4.824219 -22.429688 5.074219 -22.644531 C 5.183594 -22.753906 5.328125 -22.824219 5.4375 -22.894531 C 5.472656 -22.96875 5.507812 -23.074219 5.578125 -23.113281 C 5.722656 -23.21875 5.867188 -23.257812 6.011719 -23.363281 C 6.226562 -23.507812 6.40625 -23.722656 6.625 -23.832031 L 6.949219 -24.011719 C 7.019531 -24.011719 7.09375 -24.011719 7.128906 -24.046875 C 7.234375 -24.085938 7.308594 -24.15625 7.414062 -24.191406 C 7.597656 -24.300781 7.8125 -24.40625 8.027344 -24.480469 C 8.171875 -24.550781 8.316406 -24.589844 8.460938 -24.625 C 8.710938 -24.695312 8.964844 -24.769531 9.179688 -24.804688 C 9.503906 -24.910156 9.828125 -24.984375 10.117188 -25.054688 C 10.332031 -25.09375 10.546875 -25.054688 10.726562 -25.09375 C 10.871094 -25.09375 11.050781 -25.128906 11.195312 -25.128906 C 11.375 -25.164062 11.59375 -25.164062 11.773438 -25.164062 C 12.023438 -25.199219 12.238281 -25.234375 12.492188 -25.234375 L 14.398438 -25.234375 C 14.941406 -25.199219 15.984375 -25.019531 16.164062 -24.226562 C 16.34375 -23.507812 16.273438 -22.789062 16.273438 -22.066406 C 16.273438 -21.382812 16.273438 -20.734375 16.273438 -20.089844 L 16.273438 -19.835938 C 16.273438 -19.042969 16.234375 -18.214844 16.234375 -17.425781 C 16.234375 -16.632812 16.199219 -15.804688 16.199219 -15.011719 Z M 11.339844 -15.226562 C 11.339844 -15.984375 11.304688 -16.738281 11.304688 -17.496094 C 11.304688 -18.253906 11.269531 -19.007812 11.269531 -19.765625 L 11.269531 -19.871094 C 11.269531 -19.945312 11.269531 -20.015625 11.230469 -20.089844 C 11.160156 -20.160156 11.089844 -20.195312 11.015625 -20.195312 C 10.90625 -20.195312 10.835938 -20.125 10.765625 -20.125 C 10.621094 -20.089844 10.511719 -20.089844 10.402344 -20.089844 C 10.1875 -20.015625 10.007812 -19.980469 9.828125 -19.945312 C 9.683594 -19.90625 9.539062 -19.835938 9.433594 -19.800781 C 9.324219 -19.726562 9.179688 -19.726562 9.070312 -19.691406 C 8.785156 -19.546875 8.605469 -19.332031 8.351562 -19.117188 C 8.171875 -18.972656 7.992188 -18.828125 7.847656 -18.648438 C 7.703125 -18.433594 7.597656 -18.144531 7.488281 -17.890625 C 7.378906 -17.710938 7.273438 -17.566406 7.199219 -17.351562 C 7.09375 -17.0625 6.984375 -16.777344 6.910156 -16.488281 C 6.839844 -16.128906 6.804688 -15.804688 6.769531 -15.445312 C 6.769531 -15.265625 6.804688 -15.085938 6.769531 -14.902344 L 6.769531 -14.328125 C 6.769531 -13.96875 6.695312 -13.609375 6.695312 -13.246094 L 6.695312 -10.691406 C 6.695312 -10.585938 6.730469 -10.511719 6.769531 -10.441406 C 6.769531 -10.332031 6.875 -10.261719 6.949219 -10.261719 C 7.019531 -10.222656 7.09375 -10.222656 7.164062 -10.222656 C 8.386719 -10.222656 9.648438 -10.222656 10.871094 -10.261719 C 10.945312 -10.261719 11.015625 -10.296875 11.089844 -10.296875 C 11.160156 -10.332031 11.195312 -10.367188 11.230469 -10.476562 L 11.269531 -10.621094 C 11.269531 -11.410156 11.339844 -12.167969 11.339844 -12.925781 Z M 11.339844 -15.226562 "/></g></g></g><g fill="#f2f2f2" fill-opacity="1"><g transform="translate(177.864445, 257.55593)"><g><path d="M 1.835938 -12.671875 C 1.835938 -13.429688 1.800781 -14.21875 1.800781 -14.976562 C 1.800781 -15.769531 1.871094 -16.523438 1.871094 -17.316406 C 1.871094 -18.070312 1.800781 -18.863281 1.800781 -19.621094 L 1.800781 -21.960938 C 1.800781 -22.714844 1.835938 -23.507812 1.835938 -24.265625 C 1.835938 -24.445312 1.835938 -24.589844 1.871094 -24.730469 C 1.90625 -24.875 2.015625 -24.984375 2.125 -25.054688 C 2.230469 -25.128906 2.339844 -25.09375 2.484375 -25.128906 C 2.773438 -25.164062 3.058594 -25.199219 3.347656 -25.199219 C 4.285156 -25.199219 5.21875 -25.09375 6.15625 -25.09375 C 7.703125 -25.128906 8.820312 -25.164062 8.964844 -25.128906 C 9.144531 -25.128906 9.324219 -25.164062 9.46875 -25.164062 L 9.757812 -25.164062 C 9.863281 -25.128906 9.972656 -25.09375 10.042969 -25.09375 C 10.367188 -25.054688 10.65625 -24.910156 10.945312 -24.839844 C 11.230469 -24.769531 11.519531 -24.695312 11.808594 -24.589844 L 12.3125 -24.371094 C 12.421875 -24.335938 12.5625 -24.226562 12.671875 -24.15625 C 12.816406 -24.121094 12.925781 -24.046875 13.03125 -24.011719 C 13.066406 -23.976562 13.140625 -24.011719 13.175781 -24.011719 L 13.96875 -23.472656 C 14.074219 -23.363281 14.21875 -23.21875 14.363281 -23.113281 C 14.472656 -23.003906 14.617188 -22.859375 14.761719 -22.753906 C 14.902344 -22.609375 14.976562 -22.429688 15.121094 -22.285156 C 15.265625 -22.105469 15.480469 -21.960938 15.625 -21.742188 C 15.730469 -21.601562 15.839844 -21.421875 15.949219 -21.238281 C 16.09375 -21.058594 16.199219 -20.878906 16.308594 -20.699219 L 16.34375 -20.554688 C 16.488281 -20.304688 16.558594 -20.015625 16.667969 -19.726562 C 16.777344 -19.476562 16.8125 -19.222656 16.882812 -18.972656 C 16.957031 -18.792969 17.027344 -18.574219 17.0625 -18.394531 C 17.136719 -18.179688 17.101562 -17.964844 17.136719 -17.746094 C 17.136719 -17.605469 17.242188 -17.460938 17.242188 -17.28125 C 17.242188 -17.28125 17.207031 -17.28125 17.207031 -17.28125 L 17.207031 -16.558594 C 17.207031 -16.414062 17.171875 -16.273438 17.171875 -16.128906 C 17.171875 -16.019531 17.171875 -15.949219 17.171875 -15.875 L 17.0625 -15.15625 C 17.027344 -14.976562 17.027344 -14.796875 16.992188 -14.617188 C 16.921875 -14.363281 16.777344 -14.148438 16.667969 -13.894531 C 16.597656 -13.714844 16.558594 -13.5 16.488281 -13.320312 C 16.378906 -13.175781 16.308594 -12.996094 16.234375 -12.851562 C 16.164062 -12.707031 16.128906 -12.527344 16.054688 -12.382812 C 15.949219 -12.203125 15.804688 -12.097656 15.695312 -11.953125 C 15.550781 -11.734375 15.40625 -11.519531 15.265625 -11.339844 C 15.226562 -11.269531 15.226562 -11.230469 15.226562 -11.160156 C 15.191406 -11.050781 15.15625 -10.945312 15.226562 -10.835938 C 15.300781 -10.726562 15.371094 -10.621094 15.480469 -10.511719 C 15.625 -10.261719 15.839844 -10.042969 15.984375 -9.792969 C 16.09375 -9.574219 16.199219 -9.324219 16.273438 -9.109375 C 16.34375 -8.964844 16.453125 -8.855469 16.488281 -8.710938 C 16.597656 -8.460938 16.597656 -8.207031 16.667969 -7.921875 C 16.703125 -7.703125 16.847656 -7.453125 16.847656 -7.234375 C 16.882812 -7.09375 16.8125 -6.910156 16.8125 -6.769531 L 16.8125 -6.121094 C 16.8125 -5.21875 16.847656 -4.320312 16.847656 -3.457031 C 16.847656 -2.554688 16.847656 -1.65625 16.847656 -0.792969 L 16.847656 -0.503906 C 16.8125 -0.394531 16.777344 -0.289062 16.703125 -0.214844 L 16.597656 -0.109375 C 16.488281 -0.0351562 16.34375 0 16.234375 0 C 16.199219 0 16.199219 0 16.164062 0 L 12.492188 0 C 12.382812 0 12.277344 -0.0351562 12.167969 -0.0703125 C 11.988281 -0.144531 11.808594 -0.253906 11.773438 -0.46875 C 11.773438 -0.539062 11.84375 -0.648438 11.84375 -0.71875 C 11.84375 -1.546875 11.808594 -2.375 11.808594 -3.203125 C 11.808594 -4.03125 11.84375 -4.859375 11.84375 -5.6875 C 11.808594 -5.902344 11.734375 -6.15625 11.734375 -6.371094 C 11.699219 -6.695312 11.664062 -6.984375 11.554688 -7.234375 C 11.449219 -7.414062 11.375 -7.632812 11.230469 -7.777344 C 11.050781 -7.957031 10.835938 -8.0625 10.585938 -8.171875 C 10.476562 -8.242188 10.332031 -8.242188 10.222656 -8.28125 C 10.007812 -8.316406 9.792969 -8.425781 9.574219 -8.425781 L 9.539062 -8.425781 C 9.253906 -8.425781 8.964844 -8.386719 8.640625 -8.386719 C 8.351562 -8.386719 8.0625 -8.351562 7.738281 -8.351562 L 7.273438 -8.351562 C 7.199219 -8.316406 7.054688 -8.351562 6.984375 -8.28125 C 6.949219 -8.242188 6.910156 -8.207031 6.910156 -8.171875 C 6.875 -8.101562 6.875 -7.992188 6.875 -7.882812 C 6.839844 -7.128906 6.910156 -6.335938 6.910156 -5.578125 C 6.910156 -4.824219 6.875 -4.03125 6.875 -3.277344 C 6.875 -2.519531 6.910156 -1.726562 6.910156 -0.972656 C 6.910156 -0.863281 6.839844 -0.792969 6.804688 -0.683594 C 6.804688 -0.539062 6.769531 -0.394531 6.625 -0.324219 C 6.589844 -0.289062 6.515625 -0.253906 6.40625 -0.214844 C 6.335938 -0.214844 6.226562 -0.179688 6.121094 -0.179688 C 4.933594 -0.179688 3.78125 -0.214844 2.628906 -0.214844 C 2.519531 -0.214844 2.375 -0.144531 2.304688 -0.179688 C 2.089844 -0.214844 1.980469 -0.394531 1.90625 -0.613281 L 1.800781 -0.9375 C 1.800781 -1.007812 1.871094 -1.117188 1.871094 -1.1875 L 1.871094 -4.066406 C 1.871094 -5.039062 1.871094 -5.976562 1.871094 -6.949219 L 1.871094 -9.792969 C 1.871094 -10.765625 1.835938 -11.699219 1.835938 -12.671875 Z M 6.875 -16.738281 C 6.875 -15.910156 6.910156 -15.121094 6.910156 -14.292969 C 6.910156 -14.183594 6.875 -14.074219 6.875 -13.933594 L 6.875 -13.859375 C 6.875 -13.789062 6.949219 -13.753906 6.949219 -13.714844 C 6.984375 -13.644531 7.019531 -13.609375 7.09375 -13.535156 C 7.164062 -13.5 7.234375 -13.429688 7.34375 -13.429688 L 8.207031 -13.429688 C 8.496094 -13.464844 8.785156 -13.429688 9.070312 -13.464844 C 9.214844 -13.464844 9.394531 -13.429688 9.539062 -13.464844 C 9.898438 -13.535156 10.1875 -13.753906 10.511719 -13.933594 C 10.691406 -14.039062 10.90625 -14.074219 11.050781 -14.21875 C 11.160156 -14.328125 11.269531 -14.4375 11.375 -14.578125 C 11.519531 -14.722656 11.628906 -14.976562 11.734375 -15.15625 C 11.84375 -15.335938 11.878906 -15.515625 11.953125 -15.695312 C 12.023438 -15.875 12.097656 -16.054688 12.097656 -16.273438 C 12.132812 -16.414062 12.203125 -16.523438 12.203125 -16.667969 C 12.238281 -16.847656 12.167969 -16.992188 12.167969 -17.171875 C 12.132812 -17.425781 12.058594 -17.640625 11.988281 -17.890625 C 11.914062 -18.109375 11.808594 -18.359375 11.664062 -18.574219 L 11.304688 -19.007812 C 11.195312 -19.152344 10.980469 -19.222656 10.835938 -19.332031 C 10.65625 -19.441406 10.511719 -19.546875 10.332031 -19.65625 L 9.828125 -19.871094 C 9.683594 -19.90625 9.574219 -19.945312 9.433594 -19.945312 C 9.359375 -19.980469 9.253906 -20.050781 9.179688 -20.050781 C 9.070312 -20.050781 8.929688 -20.015625 8.820312 -20.015625 L 7.414062 -20.015625 C 7.34375 -20.015625 7.273438 -19.980469 7.199219 -19.980469 C 7.054688 -19.980469 6.984375 -19.835938 6.949219 -19.726562 C 6.949219 -19.546875 6.875 -19.402344 6.875 -19.222656 Z M 6.875 -16.738281 "/></g></g></g><g fill="#f2f2f2" fill-opacity="1"><g transform="translate(196.368476, 257.55593)"><g><path d="M 10.800781 -10.222656 C 10.800781 -7.273438 10.765625 -4.285156 10.726562 -1.296875 C 10.726562 -0.9375 10.726562 -0.539062 10.441406 -0.289062 C 10.222656 -0.0703125 9.898438 -0.0351562 9.613281 -0.0351562 C 8.710938 0 7.847656 0 6.984375 -0.0703125 C 6.660156 -0.0703125 6.300781 -0.109375 6.011719 -0.289062 C 5.6875 -0.503906 5.6875 -0.828125 5.722656 -1.1875 C 5.761719 -1.621094 5.722656 -2.089844 5.722656 -2.519531 L 5.722656 -5.507812 C 5.722656 -7.523438 5.722656 -9.503906 5.722656 -11.519531 L 5.722656 -19.042969 C 5.722656 -19.332031 5.6875 -19.65625 5.507812 -19.871094 C 5.292969 -20.050781 4.96875 -20.089844 4.679688 -20.050781 L 3.421875 -20.050781 C 2.914062 -20.050781 2.339844 -20.089844 2.015625 -20.484375 C 1.800781 -20.773438 1.800781 -21.167969 1.800781 -21.527344 C 1.800781 -22.210938 1.800781 -22.933594 1.835938 -23.617188 C 1.835938 -24.121094 1.871094 -24.695312 2.304688 -24.949219 C 2.519531 -25.09375 2.808594 -25.128906 3.097656 -25.128906 C 6.589844 -25.234375 10.078125 -25.234375 13.570312 -25.09375 C 13.824219 -25.09375 14.113281 -25.09375 14.328125 -24.910156 C 14.542969 -24.695312 14.578125 -24.40625 14.617188 -24.121094 C 14.722656 -23.074219 14.722656 -22.03125 14.652344 -20.988281 C 14.617188 -20.734375 14.617188 -20.519531 14.4375 -20.339844 C 14.257812 -20.160156 14.003906 -20.125 13.753906 -20.089844 C 13.140625 -20.050781 12.527344 -20.050781 11.953125 -20.089844 C 11.699219 -20.089844 11.484375 -20.089844 11.269531 -20.015625 C 10.800781 -19.800781 10.765625 -19.1875 10.765625 -18.683594 C 10.765625 -15.875 10.800781 -13.066406 10.800781 -10.222656 Z M 10.800781 -10.222656 "/></g></g></g><g fill="#f2f2f2" fill-opacity="1"><g transform="translate(212.856504, 257.55593)"><g><path d="M 16.273438 -12.601562 C 16.273438 -11.773438 16.273438 -10.980469 16.273438 -10.152344 L 16.273438 -7.738281 C 16.273438 -6.910156 16.234375 -6.121094 16.234375 -5.292969 C 16.234375 -4.5 16.273438 -3.671875 16.273438 -2.878906 C 16.273438 -2.050781 16.308594 -1.261719 16.308594 -0.433594 C 16.308594 -0.359375 16.234375 -0.289062 16.199219 -0.214844 C 16.164062 -0.0703125 16.09375 0 15.949219 0.0351562 C 15.839844 0.0351562 15.730469 0.109375 15.625 0.109375 L 11.84375 0.109375 C 11.773438 0.109375 11.664062 0 11.554688 -0.0351562 C 11.449219 -0.0351562 11.410156 -0.109375 11.375 -0.214844 C 11.375 -0.253906 11.339844 -0.289062 11.339844 -0.359375 C 11.304688 -0.433594 11.339844 -0.46875 11.339844 -0.539062 C 11.339844 -1.441406 11.304688 -2.339844 11.304688 -3.203125 C 11.304688 -4.105469 11.339844 -5.003906 11.339844 -5.902344 C 11.339844 -6.804688 11.304688 -7.703125 11.304688 -8.566406 L 11.304688 -8.890625 C 11.269531 -9.035156 11.195312 -9.109375 11.015625 -9.109375 C 11.015625 -9.144531 10.980469 -9.144531 10.945312 -9.144531 C 9.863281 -9.144531 8.785156 -9.179688 7.703125 -9.179688 L 7.558594 -9.179688 C 7.453125 -9.144531 7.34375 -9.035156 7.34375 -8.929688 C 7.308594 -8.820312 7.34375 -8.746094 7.34375 -8.675781 L 7.34375 -5.941406 C 7.34375 -5.003906 7.308594 -4.105469 7.308594 -3.203125 C 7.308594 -2.269531 7.273438 -1.367188 7.273438 -0.46875 C 7.273438 -0.359375 7.378906 -0.289062 7.34375 -0.214844 C 7.308594 -0.0351562 7.164062 0.0351562 7.019531 0.0703125 C 6.910156 0.0703125 6.804688 0.109375 6.695312 0.109375 C 5.4375 0.0703125 4.175781 0.0703125 2.953125 0.0703125 L 2.628906 0.0703125 C 2.519531 0.0351562 2.484375 -0.109375 2.449219 -0.214844 C 2.449219 -0.253906 2.375 -0.324219 2.375 -0.359375 C 2.375 -0.433594 2.410156 -0.539062 2.410156 -0.613281 L 2.410156 -3.3125 C 2.410156 -4.210938 2.375 -5.113281 2.375 -5.976562 C 2.375 -6.875 2.410156 -7.777344 2.410156 -8.675781 C 2.410156 -9.574219 2.339844 -10.441406 2.339844 -11.339844 C 2.339844 -12.238281 2.410156 -13.140625 2.410156 -14.039062 C 2.410156 -14.941406 2.375 -15.804688 2.375 -16.703125 C 2.375 -17.605469 2.375 -18.503906 2.375 -19.402344 L 2.375 -22.066406 C 2.375 -22.96875 2.449219 -23.867188 2.449219 -24.769531 C 2.449219 -24.839844 2.410156 -24.910156 2.449219 -24.984375 C 2.449219 -25.09375 2.484375 -25.234375 2.59375 -25.273438 C 2.664062 -25.273438 2.734375 -25.308594 2.808594 -25.308594 L 2.953125 -25.308594 C 3.601562 -25.308594 4.246094 -25.273438 4.894531 -25.273438 C 5.542969 -25.273438 6.191406 -25.273438 6.839844 -25.273438 L 7.054688 -25.273438 C 7.199219 -25.234375 7.273438 -25.128906 7.308594 -24.984375 C 7.308594 -24.910156 7.308594 -24.839844 7.308594 -24.769531 L 7.308594 -21.5625 C 7.308594 -20.808594 7.378906 -20.015625 7.378906 -19.261719 C 7.378906 -18.46875 7.273438 -17.710938 7.273438 -16.921875 C 7.273438 -16.128906 7.308594 -15.371094 7.308594 -14.578125 L 7.308594 -14.328125 C 7.308594 -14.21875 7.453125 -14.113281 7.558594 -14.074219 C 7.597656 -14.074219 7.632812 -14.148438 7.667969 -14.148438 C 8.785156 -14.148438 9.863281 -14.113281 10.945312 -14.113281 C 10.980469 -14.113281 11.015625 -14.074219 11.050781 -14.113281 C 11.195312 -14.113281 11.304688 -14.257812 11.304688 -14.363281 C 11.339844 -14.472656 11.269531 -14.542969 11.269531 -14.652344 C 11.269531 -15.515625 11.304688 -16.34375 11.304688 -17.171875 L 11.304688 -19.691406 C 11.304688 -20.554688 11.339844 -21.382812 11.339844 -22.210938 C 11.339844 -23.074219 11.269531 -23.902344 11.269531 -24.730469 C 11.269531 -24.839844 11.339844 -24.910156 11.375 -24.984375 C 11.410156 -25.09375 11.449219 -25.128906 11.554688 -25.164062 C 11.59375 -25.199219 11.664062 -25.273438 11.734375 -25.273438 L 11.84375 -25.273438 C 12.527344 -25.273438 13.175781 -25.199219 13.824219 -25.199219 C 14.472656 -25.199219 15.121094 -25.273438 15.769531 -25.273438 C 15.839844 -25.273438 15.910156 -25.234375 15.984375 -25.199219 C 16.128906 -25.199219 16.199219 -25.128906 16.234375 -24.984375 C 16.234375 -24.910156 16.273438 -24.875 16.308594 -24.839844 C 16.308594 -24.730469 16.273438 -24.660156 16.273438 -24.589844 C 16.273438 -23.796875 16.308594 -23.003906 16.308594 -22.175781 C 16.308594 -21.382812 16.234375 -20.59375 16.234375 -19.800781 C 16.234375 -19.007812 16.234375 -18.179688 16.234375 -17.386719 L 16.234375 -15.011719 C 16.234375 -14.183594 16.273438 -13.390625 16.273438 -12.601562 Z M 16.273438 -12.601562 "/></g></g></g><g fill="#f2f2f2" fill-opacity="1"><g transform="translate(110.496091, 292.055928)"><g><path d="M 1.945312 -12.636719 C 1.945312 -13.570312 1.90625 -14.507812 1.90625 -15.445312 C 1.90625 -16.378906 1.835938 -17.316406 1.835938 -18.253906 C 1.835938 -19.1875 1.835938 -20.160156 1.835938 -21.097656 L 1.835938 -23.902344 C 1.835938 -24.265625 1.90625 -24.660156 2.160156 -24.910156 C 2.410156 -25.128906 2.734375 -25.128906 3.023438 -25.128906 C 3.601562 -25.128906 4.175781 -25.164062 4.714844 -25.199219 C 5.472656 -25.199219 6.191406 -25.128906 6.949219 -25.128906 C 7.703125 -25.09375 8.425781 -25.019531 9.179688 -24.910156 C 10.117188 -24.730469 11.050781 -24.550781 11.914062 -24.15625 C 12.816406 -23.796875 13.609375 -23.257812 14.398438 -22.679688 C 15.15625 -22.140625 15.910156 -21.492188 16.523438 -20.773438 C 17.171875 -20.050781 17.785156 -19.332031 18.253906 -18.46875 C 18.683594 -17.605469 18.972656 -16.667969 19.1875 -15.730469 C 19.441406 -14.796875 19.585938 -13.859375 19.585938 -12.886719 C 19.621094 -11.914062 19.546875 -10.945312 19.367188 -10.007812 C 19.1875 -9.070312 18.863281 -8.171875 18.433594 -7.273438 C 18.035156 -6.40625 17.460938 -5.652344 16.847656 -4.894531 C 16.273438 -4.140625 15.589844 -3.492188 14.832031 -2.878906 C 14.074219 -2.269531 13.285156 -1.726562 12.421875 -1.332031 C 11.554688 -0.898438 10.65625 -0.574219 9.71875 -0.359375 C 8.675781 -0.144531 7.632812 -0.109375 6.589844 -0.0703125 C 5.542969 -0.0703125 4.5 -0.109375 3.421875 -0.144531 C 3.023438 -0.179688 2.554688 -0.0703125 2.230469 -0.289062 C 1.90625 -0.503906 1.835938 -0.898438 1.835938 -1.332031 C 1.835938 -1.691406 1.871094 -2.050781 1.871094 -2.339844 C 1.871094 -3.347656 1.800781 -4.355469 1.800781 -5.363281 C 1.800781 -6.371094 1.871094 -7.414062 1.871094 -8.460938 C 1.871094 -9.46875 1.945312 -10.511719 1.945312 -11.554688 Z M 6.875 -12.636719 C 6.875 -12.347656 6.910156 -12.097656 6.910156 -11.84375 C 6.910156 -10.65625 6.984375 -9.433594 6.984375 -8.242188 L 6.984375 -6.40625 C 6.984375 -6.191406 6.949219 -5.941406 6.984375 -5.722656 C 7.019531 -5.617188 7.34375 -5.257812 7.34375 -5.257812 C 7.523438 -5.21875 7.703125 -5.183594 7.882812 -5.183594 L 8.101562 -5.183594 C 8.890625 -5.292969 9.648438 -5.578125 10.367188 -5.941406 C 11.050781 -6.300781 11.773438 -6.695312 12.347656 -7.273438 C 12.925781 -7.8125 13.429688 -8.460938 13.789062 -9.179688 C 14.148438 -9.898438 14.292969 -10.691406 14.4375 -11.484375 C 14.507812 -11.953125 14.542969 -12.421875 14.542969 -12.925781 C 14.542969 -13.210938 14.542969 -13.535156 14.472656 -13.859375 C 14.328125 -14.652344 14.039062 -15.40625 13.679688 -16.128906 C 13.320312 -16.8125 12.742188 -17.386719 12.167969 -17.929688 C 11.59375 -18.503906 10.980469 -19.007812 10.261719 -19.332031 C 9.539062 -19.691406 8.785156 -19.90625 7.992188 -20.015625 C 7.667969 -20.050781 7.34375 -20.015625 7.164062 -19.800781 C 6.984375 -19.621094 6.949219 -19.367188 6.949219 -19.117188 C 6.949219 -18.394531 6.875 -17.675781 6.875 -16.957031 C 6.875 -16.234375 6.875 -15.515625 6.875 -14.796875 Z M 6.875 -12.636719 "/></g></g></g><g fill="#f2f2f2" fill-opacity="1"><g transform="translate(131.160137, 292.055928)"><g><path d="M 0.898438 -13.066406 C 0.898438 -13.320312 0.9375 -13.570312 1.007812 -13.824219 C 0.828125 -13.894531 1.261719 -15.480469 1.332031 -15.730469 C 1.585938 -16.882812 2.050781 -18 2.59375 -19.007812 C 2.84375 -19.402344 3.097656 -19.835938 3.382812 -20.195312 C 3.996094 -21.023438 4.753906 -21.851562 5.542969 -22.5 C 5.652344 -22.609375 5.761719 -22.679688 5.867188 -22.753906 C 5.902344 -22.789062 5.976562 -22.824219 6.011719 -22.894531 L 7.128906 -23.652344 C 7.199219 -23.6875 7.34375 -23.6875 7.414062 -23.761719 C 7.523438 -23.796875 7.632812 -23.867188 7.738281 -23.902344 C 7.777344 -23.941406 7.777344 -24.011719 7.8125 -24.011719 C 7.8125 -24.046875 7.847656 -24.011719 7.882812 -24.011719 C 7.957031 -24.085938 8.0625 -24.15625 8.171875 -24.191406 C 8.242188 -24.265625 8.351562 -24.265625 8.425781 -24.335938 C 8.496094 -24.335938 8.53125 -24.40625 8.566406 -24.40625 C 8.746094 -24.480469 8.929688 -24.515625 9.070312 -24.589844 C 9.214844 -24.625 9.394531 -24.660156 9.539062 -24.730469 C 9.613281 -24.730469 9.648438 -24.839844 9.71875 -24.839844 C 9.757812 -24.875 9.828125 -24.875 9.898438 -24.875 C 9.9375 -24.910156 10.007812 -24.875 10.042969 -24.875 C 10.117188 -24.910156 10.1875 -24.910156 10.261719 -24.949219 C 10.332031 -24.949219 10.402344 -25.019531 10.476562 -25.054688 C 10.546875 -25.09375 10.621094 -25.09375 10.691406 -25.09375 L 11.410156 -25.273438 C 11.554688 -25.273438 11.734375 -25.273438 11.914062 -25.308594 C 12.023438 -25.308594 12.132812 -25.378906 12.238281 -25.378906 C 12.421875 -25.414062 12.5625 -25.378906 12.742188 -25.414062 C 13.140625 -25.453125 13.535156 -25.34375 13.753906 -24.984375 C 13.824219 -24.875 13.824219 -24.730469 13.859375 -24.625 C 13.933594 -24.011719 13.96875 -23.398438 13.96875 -22.789062 C 13.96875 -22.429688 13.96875 -22.066406 13.933594 -21.742188 C 13.894531 -21.058594 13.753906 -20.410156 12.960938 -20.304688 L 12.816406 -20.304688 C 12.742188 -20.269531 12.671875 -20.304688 12.601562 -20.304688 L 12.097656 -20.195312 C 10.007812 -19.726562 8.0625 -18.324219 7.019531 -16.453125 C 6.949219 -16.308594 6.949219 -16.164062 6.875 -16.019531 L 6.730469 -15.769531 C 6.730469 -15.695312 6.804688 -15.660156 6.804688 -15.625 C 6.804688 -15.550781 6.769531 -15.480469 6.839844 -15.40625 C 6.875 -15.335938 6.949219 -15.265625 7.019531 -15.226562 C 7.164062 -15.191406 7.273438 -15.226562 7.414062 -15.226562 C 7.558594 -15.226562 7.738281 -15.191406 7.882812 -15.191406 C 7.921875 -15.191406 7.921875 -15.191406 7.921875 -15.191406 L 8.027344 -15.191406 C 8.0625 -15.226562 8.101562 -15.15625 8.136719 -15.15625 C 8.820312 -15.15625 9.503906 -15.15625 10.1875 -15.191406 C 10.546875 -15.191406 10.871094 -15.191406 11.195312 -15.226562 C 11.484375 -15.226562 11.773438 -15.15625 12.058594 -15.15625 L 12.132812 -15.15625 C 12.382812 -15.15625 12.742188 -15.15625 12.960938 -15.085938 C 12.996094 -15.046875 12.996094 -15.046875 13.03125 -15.046875 C 13.246094 -14.902344 13.390625 -14.6875 13.429688 -14.4375 C 13.464844 -14.292969 13.464844 -14.113281 13.464844 -13.96875 C 13.464844 -13.714844 13.464844 -13.429688 13.464844 -13.175781 L 13.464844 -11.84375 C 13.464844 -11.808594 13.429688 -11.773438 13.429688 -11.773438 C 13.429688 -11.734375 13.5 -11.699219 13.5 -11.628906 C 13.5 -11.230469 13.5 -10.585938 13.140625 -10.296875 C 12.851562 -10.078125 12.5625 -10.042969 12.238281 -10.042969 C 12.023438 -10.042969 11.84375 -10.042969 11.628906 -10.078125 C 10.980469 -10.117188 10.261719 -10.042969 9.613281 -10.042969 C 8.890625 -10.042969 8.207031 -10.078125 7.523438 -10.078125 C 7.378906 -10.078125 7.199219 -10.078125 7.054688 -10.007812 C 6.949219 -9.972656 6.875 -9.898438 6.839844 -9.828125 C 6.769531 -9.757812 6.730469 -9.683594 6.730469 -9.613281 C 6.730469 -9.539062 6.695312 -9.46875 6.730469 -9.394531 C 6.730469 -9.289062 6.804688 -9.214844 6.875 -9.109375 C 6.875 -9.070312 6.875 -9.035156 6.875 -9 L 7.128906 -8.566406 C 7.234375 -8.351562 7.453125 -8.171875 7.597656 -7.957031 C 7.847656 -7.597656 8.136719 -7.34375 8.460938 -7.019531 C 8.605469 -6.910156 8.675781 -6.730469 8.820312 -6.589844 C 9.179688 -6.300781 9.71875 -6.046875 10.152344 -5.796875 C 10.765625 -5.472656 11.449219 -5.183594 12.132812 -5.039062 C 12.203125 -5.003906 12.3125 -5.003906 12.421875 -5.003906 C 12.5625 -4.96875 12.707031 -4.96875 12.816406 -4.933594 C 12.996094 -4.894531 13.140625 -4.859375 13.320312 -4.789062 C 13.429688 -4.753906 13.5 -4.679688 13.609375 -4.570312 C 13.679688 -4.5 13.753906 -4.464844 13.789062 -4.390625 C 13.894531 -4.210938 13.894531 -4.105469 13.894531 -3.996094 C 13.894531 -3.925781 13.894531 -3.851562 13.894531 -3.78125 L 13.894531 -3.636719 C 13.933594 -3.347656 13.933594 -3.058594 13.933594 -2.773438 C 13.933594 -2.449219 13.933594 -2.160156 13.894531 -1.835938 C 13.894531 -1.546875 13.894531 -1.261719 13.859375 -0.972656 C 13.859375 -0.757812 13.894531 -0.433594 13.824219 -0.253906 C 13.824219 -0.179688 13.753906 -0.109375 13.714844 -0.0351562 L 13.609375 0.0351562 C 13.570312 0.0703125 13.464844 0.109375 13.429688 0.109375 C 13.210938 0.214844 13.03125 0.253906 12.851562 0.253906 C 12.707031 0.253906 12.5625 0.253906 12.457031 0.179688 C 12.3125 0.144531 12.167969 0.179688 12.023438 0.179688 C 11.808594 0.144531 11.59375 0.109375 11.410156 0.0351562 C 11.375 0.0351562 11.304688 0.0703125 11.269531 0.0351562 C 11.125 0.0351562 11.015625 -0.0703125 10.871094 -0.109375 C 10.800781 -0.144531 10.691406 -0.0703125 10.585938 -0.109375 C 10.402344 -0.144531 10.1875 -0.214844 10.007812 -0.289062 C 9.648438 -0.433594 9.289062 -0.613281 8.929688 -0.71875 C 8.605469 -0.828125 8.28125 -0.898438 7.992188 -1.042969 C 7.921875 -1.078125 7.847656 -1.152344 7.921875 -1.222656 C 7.703125 -1.042969 6.625 -1.945312 6.480469 -2.050781 C 6.335938 -2.125 6.191406 -2.160156 6.046875 -2.269531 C 5.941406 -2.375 5.796875 -2.484375 5.652344 -2.59375 C 5.363281 -2.808594 5.113281 -3.132812 4.824219 -3.382812 C 4.320312 -3.816406 3.816406 -4.429688 3.382812 -4.96875 L 3.097656 -5.363281 C 2.953125 -5.578125 2.878906 -5.832031 2.734375 -6.085938 C 2.664062 -6.191406 2.59375 -6.265625 2.519531 -6.371094 L 2.484375 -6.515625 C 2.269531 -6.875 2.015625 -7.273438 1.871094 -7.632812 C 1.726562 -8.101562 1.511719 -8.53125 1.402344 -8.964844 L 1.296875 -9.324219 C 1.261719 -9.433594 1.296875 -9.539062 1.261719 -9.648438 C 1.222656 -9.792969 1.222656 -9.898438 1.222656 -10.042969 C 1.1875 -10.1875 1.078125 -10.296875 1.042969 -10.441406 C 1.007812 -10.65625 1.007812 -10.871094 0.972656 -11.089844 C 0.9375 -11.375 0.9375 -11.628906 0.9375 -11.914062 C 0.898438 -12.277344 0.898438 -12.671875 0.898438 -13.066406 Z M 0.898438 -13.066406 "/></g></g></g><g fill="#f2f2f2" fill-opacity="1"><g transform="translate(146.928172, 292.055928)"><g><path d="M 1.835938 -10.402344 C 1.835938 -11.230469 1.90625 -12.058594 1.90625 -12.886719 C 1.90625 -13.679688 1.871094 -14.507812 1.871094 -15.335938 C 1.871094 -16.164062 1.800781 -16.992188 1.800781 -17.785156 C 1.800781 -18.613281 1.871094 -19.441406 1.871094 -20.269531 C 1.835938 -20.953125 1.871094 -21.636719 1.835938 -22.355469 C 1.835938 -23.039062 1.800781 -23.722656 1.800781 -24.445312 C 1.800781 -24.515625 1.835938 -24.589844 1.835938 -24.660156 C 1.871094 -24.769531 1.871094 -24.839844 1.871094 -24.910156 C 1.90625 -25.019531 1.945312 -25.164062 2.050781 -25.199219 C 2.160156 -25.234375 2.269531 -25.164062 2.339844 -25.164062 C 2.410156 -25.199219 2.484375 -25.164062 2.554688 -25.164062 C 3.347656 -25.164062 4.105469 -25.234375 4.894531 -25.234375 C 5.6875 -25.234375 6.445312 -25.164062 7.234375 -25.164062 C 7.992188 -25.164062 8.785156 -25.199219 9.539062 -25.199219 L 11.878906 -25.199219 C 11.988281 -25.199219 12.097656 -25.199219 12.203125 -25.164062 C 12.347656 -25.128906 12.457031 -25.019531 12.457031 -24.875 C 12.492188 -24.769531 12.527344 -24.660156 12.527344 -24.550781 C 12.527344 -23.398438 12.492188 -22.285156 12.492188 -21.132812 L 12.492188 -20.914062 C 12.457031 -20.773438 12.347656 -20.699219 12.203125 -20.664062 C 12.097656 -20.664062 11.953125 -20.628906 11.808594 -20.664062 C 11.808594 -20.664062 11.773438 -20.628906 11.734375 -20.628906 C 11.015625 -20.628906 10.261719 -20.664062 9.503906 -20.664062 C 8.785156 -20.664062 8.027344 -20.59375 7.308594 -20.59375 L 6.875 -20.59375 C 6.625 -20.519531 6.40625 -20.410156 6.371094 -20.160156 C 6.371094 -20.050781 6.371094 -19.90625 6.371094 -19.800781 L 6.371094 -17.242188 C 6.371094 -16.378906 6.40625 -15.550781 6.40625 -14.6875 C 6.40625 -14.542969 6.445312 -14.4375 6.480469 -14.292969 C 6.550781 -14.113281 6.660156 -14.039062 6.839844 -14.003906 C 6.949219 -13.96875 7.054688 -13.859375 7.164062 -13.859375 C 7.957031 -13.859375 8.746094 -13.933594 9.539062 -13.933594 L 11.953125 -13.933594 C 12.023438 -13.933594 12.132812 -13.894531 12.203125 -13.859375 C 12.347656 -13.824219 12.382812 -13.714844 12.421875 -13.570312 C 12.421875 -13.464844 12.457031 -13.355469 12.457031 -13.246094 L 12.457031 -9.863281 C 12.457031 -9.792969 12.492188 -9.683594 12.457031 -9.613281 C 12.421875 -9.503906 12.347656 -9.433594 12.203125 -9.394531 C 12.097656 -9.359375 11.953125 -9.324219 11.808594 -9.324219 L 11.734375 -9.324219 C 11.015625 -9.324219 10.261719 -9.359375 9.503906 -9.359375 L 7.273438 -9.359375 C 7.164062 -9.359375 7.019531 -9.324219 6.875 -9.289062 C 6.625 -9.253906 6.515625 -9.070312 6.480469 -8.855469 C 6.445312 -8.710938 6.40625 -8.605469 6.40625 -8.460938 C 6.40625 -7.597656 6.40625 -6.695312 6.40625 -5.832031 L 6.40625 -3.203125 C 6.40625 -2.339844 6.445312 -1.441406 6.445312 -0.574219 L 6.40625 -0.324219 C 6.371094 -0.144531 6.226562 -0.0703125 6.046875 -0.0703125 C 5.832031 -0.0351562 5.652344 -0.0351562 5.472656 -0.0351562 L 2.449219 -0.0351562 C 2.304688 -0.0351562 2.195312 0.0351562 2.050781 0 C 1.945312 -0.0351562 1.90625 -0.179688 1.90625 -0.289062 C 1.871094 -0.359375 1.871094 -0.433594 1.871094 -0.539062 C 1.871094 -1.367188 1.800781 -2.160156 1.800781 -2.988281 L 1.800781 -5.472656 C 1.800781 -6.300781 1.871094 -7.128906 1.871094 -7.957031 C 1.871094 -8.746094 1.871094 -9.574219 1.871094 -10.402344 Z M 1.835938 -10.402344 "/></g></g></g><g fill="#f2f2f2" fill-opacity="1"><g transform="translate(161.256196, 292.055928)"><g><path d="M 0.898438 -13.066406 C 0.898438 -13.320312 0.9375 -13.570312 1.007812 -13.824219 C 0.828125 -13.894531 1.261719 -15.480469 1.332031 -15.730469 C 1.585938 -16.882812 2.050781 -18 2.59375 -19.007812 C 2.84375 -19.402344 3.097656 -19.835938 3.382812 -20.195312 C 3.996094 -21.023438 4.753906 -21.851562 5.542969 -22.5 C 5.652344 -22.609375 5.761719 -22.679688 5.867188 -22.753906 C 5.902344 -22.789062 5.976562 -22.824219 6.011719 -22.894531 L 7.128906 -23.652344 C 7.199219 -23.6875 7.34375 -23.6875 7.414062 -23.761719 C 7.523438 -23.796875 7.632812 -23.867188 7.738281 -23.902344 C 7.777344 -23.941406 7.777344 -24.011719 7.8125 -24.011719 C 7.8125 -24.046875 7.847656 -24.011719 7.882812 -24.011719 C 7.957031 -24.085938 8.0625 -24.15625 8.171875 -24.191406 C 8.242188 -24.265625 8.351562 -24.265625 8.425781 -24.335938 C 8.496094 -24.335938 8.53125 -24.40625 8.566406 -24.40625 C 8.746094 -24.480469 8.929688 -24.515625 9.070312 -24.589844 C 9.214844 -24.625 9.394531 -24.660156 9.539062 -24.730469 C 9.613281 -24.730469 9.648438 -24.839844 9.71875 -24.839844 C 9.757812 -24.875 9.828125 -24.875 9.898438 -24.875 C 9.9375 -24.910156 10.007812 -24.875 10.042969 -24.875 C 10.117188 -24.910156 10.1875 -24.910156 10.261719 -24.949219 C 10.332031 -24.949219 10.402344 -25.019531 10.476562 -25.054688 C 10.546875 -25.09375 10.621094 -25.09375 10.691406 -25.09375 L 11.410156 -25.273438 C 11.554688 -25.273438 11.734375 -25.273438 11.914062 -25.308594 C 12.023438 -25.308594 12.132812 -25.378906 12.238281 -25.378906 C 12.421875 -25.414062 12.5625 -25.378906 12.742188 -25.414062 C 13.140625 -25.453125 13.535156 -25.34375 13.753906 -24.984375 C 13.824219 -24.875 13.824219 -24.730469 13.859375 -24.625 C 13.933594 -24.011719 13.96875 -23.398438 13.96875 -22.789062 C 13.96875 -22.429688 13.96875 -22.066406 13.933594 -21.742188 C 13.894531 -21.058594 13.753906 -20.410156 12.960938 -20.304688 L 12.816406 -20.304688 C 12.742188 -20.269531 12.671875 -20.304688 12.601562 -20.304688 L 12.097656 -20.195312 C 10.007812 -19.726562 8.0625 -18.324219 7.019531 -16.453125 C 6.949219 -16.308594 6.949219 -16.164062 6.875 -16.019531 L 6.730469 -15.769531 C 6.730469 -15.695312 6.804688 -15.660156 6.804688 -15.625 C 6.804688 -15.550781 6.769531 -15.480469 6.839844 -15.40625 C 6.875 -15.335938 6.949219 -15.265625 7.019531 -15.226562 C 7.164062 -15.191406 7.273438 -15.226562 7.414062 -15.226562 C 7.558594 -15.226562 7.738281 -15.191406 7.882812 -15.191406 C 7.921875 -15.191406 7.921875 -15.191406 7.921875 -15.191406 L 8.027344 -15.191406 C 8.0625 -15.226562 8.101562 -15.15625 8.136719 -15.15625 C 8.820312 -15.15625 9.503906 -15.15625 10.1875 -15.191406 C 10.546875 -15.191406 10.871094 -15.191406 11.195312 -15.226562 C 11.484375 -15.226562 11.773438 -15.15625 12.058594 -15.15625 L 12.132812 -15.15625 C 12.382812 -15.15625 12.742188 -15.15625 12.960938 -15.085938 C 12.996094 -15.046875 12.996094 -15.046875 13.03125 -15.046875 C 13.246094 -14.902344 13.390625 -14.6875 13.429688 -14.4375 C 13.464844 -14.292969 13.464844 -14.113281 13.464844 -13.96875 C 13.464844 -13.714844 13.464844 -13.429688 13.464844 -13.175781 L 13.464844 -11.84375 C 13.464844 -11.808594 13.429688 -11.773438 13.429688 -11.773438 C 13.429688 -11.734375 13.5 -11.699219 13.5 -11.628906 C 13.5 -11.230469 13.5 -10.585938 13.140625 -10.296875 C 12.851562 -10.078125 12.5625 -10.042969 12.238281 -10.042969 C 12.023438 -10.042969 11.84375 -10.042969 11.628906 -10.078125 C 10.980469 -10.117188 10.261719 -10.042969 9.613281 -10.042969 C 8.890625 -10.042969 8.207031 -10.078125 7.523438 -10.078125 C 7.378906 -10.078125 7.199219 -10.078125 7.054688 -10.007812 C 6.949219 -9.972656 6.875 -9.898438 6.839844 -9.828125 C 6.769531 -9.757812 6.730469 -9.683594 6.730469 -9.613281 C 6.730469 -9.539062 6.695312 -9.46875 6.730469 -9.394531 C 6.730469 -9.289062 6.804688 -9.214844 6.875 -9.109375 C 6.875 -9.070312 6.875 -9.035156 6.875 -9 L 7.128906 -8.566406 C 7.234375 -8.351562 7.453125 -8.171875 7.597656 -7.957031 C 7.847656 -7.597656 8.136719 -7.34375 8.460938 -7.019531 C 8.605469 -6.910156 8.675781 -6.730469 8.820312 -6.589844 C 9.179688 -6.300781 9.71875 -6.046875 10.152344 -5.796875 C 10.765625 -5.472656 11.449219 -5.183594 12.132812 -5.039062 C 12.203125 -5.003906 12.3125 -5.003906 12.421875 -5.003906 C 12.5625 -4.96875 12.707031 -4.96875 12.816406 -4.933594 C 12.996094 -4.894531 13.140625 -4.859375 13.320312 -4.789062 C 13.429688 -4.753906 13.5 -4.679688 13.609375 -4.570312 C 13.679688 -4.5 13.753906 -4.464844 13.789062 -4.390625 C 13.894531 -4.210938 13.894531 -4.105469 13.894531 -3.996094 C 13.894531 -3.925781 13.894531 -3.851562 13.894531 -3.78125 L 13.894531 -3.636719 C 13.933594 -3.347656 13.933594 -3.058594 13.933594 -2.773438 C 13.933594 -2.449219 13.933594 -2.160156 13.894531 -1.835938 C 13.894531 -1.546875 13.894531 -1.261719 13.859375 -0.972656 C 13.859375 -0.757812 13.894531 -0.433594 13.824219 -0.253906 C 13.824219 -0.179688 13.753906 -0.109375 13.714844 -0.0351562 L 13.609375 0.0351562 C 13.570312 0.0703125 13.464844 0.109375 13.429688 0.109375 C 13.210938 0.214844 13.03125 0.253906 12.851562 0.253906 C 12.707031 0.253906 12.5625 0.253906 12.457031 0.179688 C 12.3125 0.144531 12.167969 0.179688 12.023438 0.179688 C 11.808594 0.144531 11.59375 0.109375 11.410156 0.0351562 C 11.375 0.0351562 11.304688 0.0703125 11.269531 0.0351562 C 11.125 0.0351562 11.015625 -0.0703125 10.871094 -0.109375 C 10.800781 -0.144531 10.691406 -0.0703125 10.585938 -0.109375 C 10.402344 -0.144531 10.1875 -0.214844 10.007812 -0.289062 C 9.648438 -0.433594 9.289062 -0.613281 8.929688 -0.71875 C 8.605469 -0.828125 8.28125 -0.898438 7.992188 -1.042969 C 7.921875 -1.078125 7.847656 -1.152344 7.921875 -1.222656 C 7.703125 -1.042969 6.625 -1.945312 6.480469 -2.050781 C 6.335938 -2.125 6.191406 -2.160156 6.046875 -2.269531 C 5.941406 -2.375 5.796875 -2.484375 5.652344 -2.59375 C 5.363281 -2.808594 5.113281 -3.132812 4.824219 -3.382812 C 4.320312 -3.816406 3.816406 -4.429688 3.382812 -4.96875 L 3.097656 -5.363281 C 2.953125 -5.578125 2.878906 -5.832031 2.734375 -6.085938 C 2.664062 -6.191406 2.59375 -6.265625 2.519531 -6.371094 L 2.484375 -6.515625 C 2.269531 -6.875 2.015625 -7.273438 1.871094 -7.632812 C 1.726562 -8.101562 1.511719 -8.53125 1.402344 -8.964844 L 1.296875 -9.324219 C 1.261719 -9.433594 1.296875 -9.539062 1.261719 -9.648438 C 1.222656 -9.792969 1.222656 -9.898438 1.222656 -10.042969 C 1.1875 -10.1875 1.078125 -10.296875 1.042969 -10.441406 C 1.007812 -10.65625 1.007812 -10.871094 0.972656 -11.089844 C 0.9375 -11.375 0.9375 -11.628906 0.9375 -11.914062 C 0.898438 -12.277344 0.898438 -12.671875 0.898438 -13.066406 Z M 0.898438 -13.066406 "/></g></g></g><g fill="#f2f2f2" fill-opacity="1"><g transform="translate(177.024231, 292.055928)"><g><path d="M 6.515625 -0.0351562 C 6.046875 -0.0351562 5.578125 0 5.074219 0 C 4.320312 0 3.601562 0.0351562 2.84375 0.0351562 C 2.773438 0.0351562 2.664062 -0.0351562 2.59375 -0.0703125 C 2.519531 -0.0703125 2.410156 -0.0703125 2.375 -0.179688 C 2.375 -0.214844 2.375 -0.253906 2.339844 -0.289062 L 2.375 -0.324219 C 2.375 -0.359375 2.410156 -0.394531 2.410156 -0.394531 C 2.410156 -0.433594 2.339844 -0.433594 2.339844 -0.433594 L 2.375 -0.46875 C 2.375 -0.503906 2.375 -0.539062 2.375 -0.539062 L 2.339844 -0.683594 C 2.339844 -1.585938 2.375 -2.449219 2.375 -3.347656 C 2.375 -4.210938 2.410156 -5.113281 2.410156 -5.976562 C 2.410156 -6.875 2.410156 -7.738281 2.410156 -8.640625 L 2.410156 -11.269531 C 2.410156 -12.167969 2.339844 -13.03125 2.339844 -13.933594 L 2.339844 -16.558594 C 2.339844 -17.460938 2.375 -18.324219 2.375 -19.222656 C 2.375 -20.089844 2.375 -20.988281 2.375 -21.851562 L 2.375 -24.515625 C 2.375 -24.550781 2.410156 -24.589844 2.375 -24.625 C 2.375 -24.660156 2.339844 -24.695312 2.339844 -24.730469 C 2.339844 -24.769531 2.410156 -24.804688 2.410156 -24.804688 C 2.410156 -24.875 2.375 -24.949219 2.375 -25.019531 C 2.410156 -25.09375 2.484375 -25.164062 2.554688 -25.199219 C 2.628906 -25.199219 2.664062 -25.234375 2.699219 -25.234375 L 2.914062 -25.234375 C 3.058594 -25.234375 3.238281 -25.164062 3.382812 -25.164062 C 4.03125 -25.164062 4.789062 -25.199219 5.4375 -25.164062 C 5.542969 -25.128906 5.578125 -25.054688 5.652344 -25.054688 C 6.40625 -24.984375 7.09375 -24.875 7.847656 -24.660156 C 8.460938 -24.515625 9.035156 -24.335938 9.648438 -24.085938 C 9.71875 -24.046875 9.828125 -24.011719 9.863281 -23.941406 L 9.972656 -23.832031 C 10.007812 -23.796875 10.078125 -23.796875 10.152344 -23.796875 C 10.367188 -23.722656 10.65625 -23.507812 10.871094 -23.363281 L 11.519531 -22.894531 C 11.628906 -22.824219 11.699219 -22.753906 11.808594 -22.679688 L 11.914062 -22.570312 C 12.097656 -22.429688 12.277344 -22.246094 12.457031 -22.03125 C 12.527344 -21.960938 12.527344 -21.925781 12.601562 -21.886719 C 12.671875 -21.816406 12.742188 -21.816406 12.816406 -21.816406 C 12.886719 -21.816406 12.996094 -21.851562 13.066406 -22.066406 C 13.066406 -22.105469 13.03125 -22.175781 13.03125 -22.246094 C 13.066406 -22.753906 13.066406 -23.257812 13.066406 -23.761719 C 13.066406 -24.046875 13.105469 -24.300781 13.105469 -24.589844 C 13.105469 -24.625 13.140625 -24.660156 13.140625 -24.695312 L 13.140625 -24.730469 C 13.140625 -24.730469 13.105469 -24.730469 13.105469 -24.730469 L 13.105469 -24.839844 C 13.105469 -24.875 13.066406 -24.949219 13.105469 -25.019531 C 13.105469 -25.09375 13.175781 -25.199219 13.246094 -25.234375 C 13.320312 -25.234375 13.355469 -25.199219 13.429688 -25.199219 C 14.039062 -25.199219 14.6875 -25.234375 15.335938 -25.234375 L 17.425781 -25.234375 C 17.496094 -25.234375 17.566406 -25.164062 17.640625 -25.128906 C 17.675781 -25.09375 17.710938 -25.09375 17.710938 -25.054688 C 17.746094 -24.984375 17.746094 -24.910156 17.746094 -24.839844 C 17.746094 -24.769531 17.820312 -24.695312 17.820312 -24.625 C 17.820312 -23.4375 17.785156 -23.4375 17.785156 -22.246094 L 17.785156 -19.871094 C 17.785156 -18.683594 17.746094 -18.683594 17.746094 -17.496094 C 17.746094 -16.273438 17.820312 -16.273438 17.820312 -15.085938 C 17.820312 -12.925781 17.785156 -10.765625 17.785156 -8.605469 C 17.785156 -7.703125 17.746094 -6.804688 17.746094 -5.902344 C 17.746094 -5.003906 17.820312 -4.066406 17.820312 -3.167969 C 17.820312 -2.269531 17.785156 -1.367188 17.785156 -0.46875 C 17.785156 -0.394531 17.820312 -0.289062 17.820312 -0.253906 C 17.785156 -0.109375 17.675781 0 17.53125 0.0351562 L 17.28125 0 C 16.777344 0 16.273438 -0.0351562 15.769531 -0.0351562 C 15.046875 -0.0351562 14.292969 0 13.535156 0 C 13.464844 0 13.390625 -0.0351562 13.320312 -0.0351562 C 13.210938 -0.0351562 13.105469 -0.0703125 13.066406 -0.179688 C 13.066406 -0.214844 13.140625 -0.289062 13.140625 -0.324219 C 13.105469 -0.613281 13.03125 -0.863281 13.03125 -1.152344 C 13.03125 -1.222656 13.105469 -1.296875 13.105469 -1.367188 L 13.105469 -1.800781 C 13.105469 -1.980469 13.03125 -2.160156 13.03125 -2.304688 C 13.03125 -2.375 13.03125 -2.410156 13.03125 -2.449219 L 13.066406 -2.484375 C 13.066406 -2.484375 13.03125 -2.519531 13.03125 -2.519531 L 12.996094 -2.519531 C 13.03125 -2.59375 13.066406 -2.699219 13.066406 -2.773438 C 12.996094 -4.789062 12.960938 -6.804688 12.742188 -8.820312 C 12.742188 -8.890625 12.78125 -9 12.742188 -9.070312 C 12.671875 -9.757812 12.492188 -10.402344 12.382812 -11.089844 L 12.382812 -11.125 C 12.3125 -11.59375 12.238281 -12.097656 12.132812 -12.5625 C 12.058594 -12.816406 11.953125 -13.03125 11.878906 -13.246094 C 11.878906 -13.355469 11.808594 -13.320312 11.773438 -13.390625 C 11.734375 -13.570312 11.773438 -13.714844 11.734375 -13.824219 C 11.519531 -14.4375 11.230469 -15.011719 10.945312 -15.589844 C 10.945312 -15.660156 10.945312 -15.660156 10.90625 -15.695312 C 10.835938 -15.839844 10.765625 -15.984375 10.691406 -16.128906 L 10.367188 -16.667969 C 10.367188 -16.703125 10.332031 -16.738281 10.296875 -16.777344 C 10.296875 -16.777344 10.261719 -16.777344 10.222656 -16.8125 L 10.152344 -16.882812 C 9.9375 -17.136719 9.757812 -17.496094 9.503906 -17.746094 C 9.46875 -17.820312 9.359375 -17.820312 9.289062 -17.890625 L 9.179688 -18 C 9.035156 -18.144531 8.890625 -18.324219 8.675781 -18.503906 C 8.496094 -18.683594 8.28125 -18.828125 8.027344 -19.007812 C 7.921875 -19.042969 7.8125 -19.117188 7.703125 -19.1875 C 7.667969 -19.1875 7.667969 -19.222656 7.632812 -19.222656 C 7.597656 -19.261719 7.488281 -19.261719 7.414062 -19.261719 L 7.414062 -19.222656 C 7.308594 -19.222656 7.164062 -19.222656 7.128906 -19.117188 C 7.09375 -19.078125 7.164062 -18.972656 7.128906 -18.863281 C 7.128906 -18.613281 7.09375 -18.359375 7.09375 -18.070312 L 7.09375 -17.929688 C 7.09375 -17.101562 7.128906 -16.273438 7.128906 -15.445312 C 7.128906 -14.652344 7.09375 -13.824219 7.09375 -12.996094 C 7.09375 -12.167969 7.128906 -11.339844 7.128906 -10.511719 C 7.128906 -9.71875 7.128906 -8.890625 7.128906 -8.0625 L 7.128906 -5.578125 C 7.128906 -4.789062 7.054688 -3.960938 7.054688 -3.132812 L 7.054688 -0.359375 C 7.054688 -0.289062 7.128906 -0.214844 7.09375 -0.179688 C 7.054688 -0.0703125 6.984375 0 6.875 0 C 6.769531 0.0351562 6.625 0.0351562 6.515625 0.0351562 Z M 6.515625 -0.0351562 "/></g></g></g><g fill="#f2f2f2" fill-opacity="1"><g transform="translate(197.184268, 292.055928)"><g><path d="M 1.945312 -12.636719 C 1.945312 -13.570312 1.90625 -14.507812 1.90625 -15.445312 C 1.90625 -16.378906 1.835938 -17.316406 1.835938 -18.253906 C 1.835938 -19.1875 1.835938 -20.160156 1.835938 -21.097656 L 1.835938 -23.902344 C 1.835938 -24.265625 1.90625 -24.660156 2.160156 -24.910156 C 2.410156 -25.128906 2.734375 -25.128906 3.023438 -25.128906 C 3.601562 -25.128906 4.175781 -25.164062 4.714844 -25.199219 C 5.472656 -25.199219 6.191406 -25.128906 6.949219 -25.128906 C 7.703125 -25.09375 8.425781 -25.019531 9.179688 -24.910156 C 10.117188 -24.730469 11.050781 -24.550781 11.914062 -24.15625 C 12.816406 -23.796875 13.609375 -23.257812 14.398438 -22.679688 C 15.15625 -22.140625 15.910156 -21.492188 16.523438 -20.773438 C 17.171875 -20.050781 17.785156 -19.332031 18.253906 -18.46875 C 18.683594 -17.605469 18.972656 -16.667969 19.1875 -15.730469 C 19.441406 -14.796875 19.585938 -13.859375 19.585938 -12.886719 C 19.621094 -11.914062 19.546875 -10.945312 19.367188 -10.007812 C 19.1875 -9.070312 18.863281 -8.171875 18.433594 -7.273438 C 18.035156 -6.40625 17.460938 -5.652344 16.847656 -4.894531 C 16.273438 -4.140625 15.589844 -3.492188 14.832031 -2.878906 C 14.074219 -2.269531 13.285156 -1.726562 12.421875 -1.332031 C 11.554688 -0.898438 10.65625 -0.574219 9.71875 -0.359375 C 8.675781 -0.144531 7.632812 -0.109375 6.589844 -0.0703125 C 5.542969 -0.0703125 4.5 -0.109375 3.421875 -0.144531 C 3.023438 -0.179688 2.554688 -0.0703125 2.230469 -0.289062 C 1.90625 -0.503906 1.835938 -0.898438 1.835938 -1.332031 C 1.835938 -1.691406 1.871094 -2.050781 1.871094 -2.339844 C 1.871094 -3.347656 1.800781 -4.355469 1.800781 -5.363281 C 1.800781 -6.371094 1.871094 -7.414062 1.871094 -8.460938 C 1.871094 -9.46875 1.945312 -10.511719 1.945312 -11.554688 Z M 6.875 -12.636719 C 6.875 -12.347656 6.910156 -12.097656 6.910156 -11.84375 C 6.910156 -10.65625 6.984375 -9.433594 6.984375 -8.242188 L 6.984375 -6.40625 C 6.984375 -6.191406 6.949219 -5.941406 6.984375 -5.722656 C 7.019531 -5.617188 7.34375 -5.257812 7.34375 -5.257812 C 7.523438 -5.21875 7.703125 -5.183594 7.882812 -5.183594 L 8.101562 -5.183594 C 8.890625 -5.292969 9.648438 -5.578125 10.367188 -5.941406 C 11.050781 -6.300781 11.773438 -6.695312 12.347656 -7.273438 C 12.925781 -7.8125 13.429688 -8.460938 13.789062 -9.179688 C 14.148438 -9.898438 14.292969 -10.691406 14.4375 -11.484375 C 14.507812 -11.953125 14.542969 -12.421875 14.542969 -12.925781 C 14.542969 -13.210938 14.542969 -13.535156 14.472656 -13.859375 C 14.328125 -14.652344 14.039062 -15.40625 13.679688 -16.128906 C 13.320312 -16.8125 12.742188 -17.386719 12.167969 -17.929688 C 11.59375 -18.503906 10.980469 -19.007812 10.261719 -19.332031 C 9.539062 -19.691406 8.785156 -19.90625 7.992188 -20.015625 C 7.667969 -20.050781 7.34375 -20.015625 7.164062 -19.800781 C 6.984375 -19.621094 6.949219 -19.367188 6.949219 -19.117188 C 6.949219 -18.394531 6.875 -17.675781 6.875 -16.957031 C 6.875 -16.234375 6.875 -15.515625 6.875 -14.796875 Z M 6.875 -12.636719 "/></g></g></g><g fill="#f2f2f2" fill-opacity="1"><g transform="translate(217.848314, 292.055928)"><g><path d="M 0.898438 -13.066406 C 0.898438 -13.320312 0.9375 -13.570312 1.007812 -13.824219 C 0.828125 -13.894531 1.261719 -15.480469 1.332031 -15.730469 C 1.585938 -16.882812 2.050781 -18 2.59375 -19.007812 C 2.84375 -19.402344 3.097656 -19.835938 3.382812 -20.195312 C 3.996094 -21.023438 4.753906 -21.851562 5.542969 -22.5 C 5.652344 -22.609375 5.761719 -22.679688 5.867188 -22.753906 C 5.902344 -22.789062 5.976562 -22.824219 6.011719 -22.894531 L 7.128906 -23.652344 C 7.199219 -23.6875 7.34375 -23.6875 7.414062 -23.761719 C 7.523438 -23.796875 7.632812 -23.867188 7.738281 -23.902344 C 7.777344 -23.941406 7.777344 -24.011719 7.8125 -24.011719 C 7.8125 -24.046875 7.847656 -24.011719 7.882812 -24.011719 C 7.957031 -24.085938 8.0625 -24.15625 8.171875 -24.191406 C 8.242188 -24.265625 8.351562 -24.265625 8.425781 -24.335938 C 8.496094 -24.335938 8.53125 -24.40625 8.566406 -24.40625 C 8.746094 -24.480469 8.929688 -24.515625 9.070312 -24.589844 C 9.214844 -24.625 9.394531 -24.660156 9.539062 -24.730469 C 9.613281 -24.730469 9.648438 -24.839844 9.71875 -24.839844 C 9.757812 -24.875 9.828125 -24.875 9.898438 -24.875 C 9.9375 -24.910156 10.007812 -24.875 10.042969 -24.875 C 10.117188 -24.910156 10.1875 -24.910156 10.261719 -24.949219 C 10.332031 -24.949219 10.402344 -25.019531 10.476562 -25.054688 C 10.546875 -25.09375 10.621094 -25.09375 10.691406 -25.09375 L 11.410156 -25.273438 C 11.554688 -25.273438 11.734375 -25.273438 11.914062 -25.308594 C 12.023438 -25.308594 12.132812 -25.378906 12.238281 -25.378906 C 12.421875 -25.414062 12.5625 -25.378906 12.742188 -25.414062 C 13.140625 -25.453125 13.535156 -25.34375 13.753906 -24.984375 C 13.824219 -24.875 13.824219 -24.730469 13.859375 -24.625 C 13.933594 -24.011719 13.96875 -23.398438 13.96875 -22.789062 C 13.96875 -22.429688 13.96875 -22.066406 13.933594 -21.742188 C 13.894531 -21.058594 13.753906 -20.410156 12.960938 -20.304688 L 12.816406 -20.304688 C 12.742188 -20.269531 12.671875 -20.304688 12.601562 -20.304688 L 12.097656 -20.195312 C 10.007812 -19.726562 8.0625 -18.324219 7.019531 -16.453125 C 6.949219 -16.308594 6.949219 -16.164062 6.875 -16.019531 L 6.730469 -15.769531 C 6.730469 -15.695312 6.804688 -15.660156 6.804688 -15.625 C 6.804688 -15.550781 6.769531 -15.480469 6.839844 -15.40625 C 6.875 -15.335938 6.949219 -15.265625 7.019531 -15.226562 C 7.164062 -15.191406 7.273438 -15.226562 7.414062 -15.226562 C 7.558594 -15.226562 7.738281 -15.191406 7.882812 -15.191406 C 7.921875 -15.191406 7.921875 -15.191406 7.921875 -15.191406 L 8.027344 -15.191406 C 8.0625 -15.226562 8.101562 -15.15625 8.136719 -15.15625 C 8.820312 -15.15625 9.503906 -15.15625 10.1875 -15.191406 C 10.546875 -15.191406 10.871094 -15.191406 11.195312 -15.226562 C 11.484375 -15.226562 11.773438 -15.15625 12.058594 -15.15625 L 12.132812 -15.15625 C 12.382812 -15.15625 12.742188 -15.15625 12.960938 -15.085938 C 12.996094 -15.046875 12.996094 -15.046875 13.03125 -15.046875 C 13.246094 -14.902344 13.390625 -14.6875 13.429688 -14.4375 C 13.464844 -14.292969 13.464844 -14.113281 13.464844 -13.96875 C 13.464844 -13.714844 13.464844 -13.429688 13.464844 -13.175781 L 13.464844 -11.84375 C 13.464844 -11.808594 13.429688 -11.773438 13.429688 -11.773438 C 13.429688 -11.734375 13.5 -11.699219 13.5 -11.628906 C 13.5 -11.230469 13.5 -10.585938 13.140625 -10.296875 C 12.851562 -10.078125 12.5625 -10.042969 12.238281 -10.042969 C 12.023438 -10.042969 11.84375 -10.042969 11.628906 -10.078125 C 10.980469 -10.117188 10.261719 -10.042969 9.613281 -10.042969 C 8.890625 -10.042969 8.207031 -10.078125 7.523438 -10.078125 C 7.378906 -10.078125 7.199219 -10.078125 7.054688 -10.007812 C 6.949219 -9.972656 6.875 -9.898438 6.839844 -9.828125 C 6.769531 -9.757812 6.730469 -9.683594 6.730469 -9.613281 C 6.730469 -9.539062 6.695312 -9.46875 6.730469 -9.394531 C 6.730469 -9.289062 6.804688 -9.214844 6.875 -9.109375 C 6.875 -9.070312 6.875 -9.035156 6.875 -9 L 7.128906 -8.566406 C 7.234375 -8.351562 7.453125 -8.171875 7.597656 -7.957031 C 7.847656 -7.597656 8.136719 -7.34375 8.460938 -7.019531 C 8.605469 -6.910156 8.675781 -6.730469 8.820312 -6.589844 C 9.179688 -6.300781 9.71875 -6.046875 10.152344 -5.796875 C 10.765625 -5.472656 11.449219 -5.183594 12.132812 -5.039062 C 12.203125 -5.003906 12.3125 -5.003906 12.421875 -5.003906 C 12.5625 -4.96875 12.707031 -4.96875 12.816406 -4.933594 C 12.996094 -4.894531 13.140625 -4.859375 13.320312 -4.789062 C 13.429688 -4.753906 13.5 -4.679688 13.609375 -4.570312 C 13.679688 -4.5 13.753906 -4.464844 13.789062 -4.390625 C 13.894531 -4.210938 13.894531 -4.105469 13.894531 -3.996094 C 13.894531 -3.925781 13.894531 -3.851562 13.894531 -3.78125 L 13.894531 -3.636719 C 13.933594 -3.347656 13.933594 -3.058594 13.933594 -2.773438 C 13.933594 -2.449219 13.933594 -2.160156 13.894531 -1.835938 C 13.894531 -1.546875 13.894531 -1.261719 13.859375 -0.972656 C 13.859375 -0.757812 13.894531 -0.433594 13.824219 -0.253906 C 13.824219 -0.179688 13.753906 -0.109375 13.714844 -0.0351562 L 13.609375 0.0351562 C 13.570312 0.0703125 13.464844 0.109375 13.429688 0.109375 C 13.210938 0.214844 13.03125 0.253906 12.851562 0.253906 C 12.707031 0.253906 12.5625 0.253906 12.457031 0.179688 C 12.3125 0.144531 12.167969 0.179688 12.023438 0.179688 C 11.808594 0.144531 11.59375 0.109375 11.410156 0.0351562 C 11.375 0.0351562 11.304688 0.0703125 11.269531 0.0351562 C 11.125 0.0351562 11.015625 -0.0703125 10.871094 -0.109375 C 10.800781 -0.144531 10.691406 -0.0703125 10.585938 -0.109375 C 10.402344 -0.144531 10.1875 -0.214844 10.007812 -0.289062 C 9.648438 -0.433594 9.289062 -0.613281 8.929688 -0.71875 C 8.605469 -0.828125 8.28125 -0.898438 7.992188 -1.042969 C 7.921875 -1.078125 7.847656 -1.152344 7.921875 -1.222656 C 7.703125 -1.042969 6.625 -1.945312 6.480469 -2.050781 C 6.335938 -2.125 6.191406 -2.160156 6.046875 -2.269531 C 5.941406 -2.375 5.796875 -2.484375 5.652344 -2.59375 C 5.363281 -2.808594 5.113281 -3.132812 4.824219 -3.382812 C 4.320312 -3.816406 3.816406 -4.429688 3.382812 -4.96875 L 3.097656 -5.363281 C 2.953125 -5.578125 2.878906 -5.832031 2.734375 -6.085938 C 2.664062 -6.191406 2.59375 -6.265625 2.519531 -6.371094 L 2.484375 -6.515625 C 2.269531 -6.875 2.015625 -7.273438 1.871094 -7.632812 C 1.726562 -8.101562 1.511719 -8.53125 1.402344 -8.964844 L 1.296875 -9.324219 C 1.261719 -9.433594 1.296875 -9.539062 1.261719 -9.648438 C 1.222656 -9.792969 1.222656 -9.898438 1.222656 -10.042969 C 1.1875 -10.1875 1.078125 -10.296875 1.042969 -10.441406 C 1.007812 -10.65625 1.007812 -10.871094 0.972656 -11.089844 C 0.9375 -11.375 0.9375 -11.628906 0.9375 -11.914062 C 0.898438 -12.277344 0.898438 -12.671875 0.898438 -13.066406 Z M 0.898438 -13.066406 "/></g></g></g><g fill="#f2f2f2" fill-opacity="1"><g transform="translate(233.616349, 292.055928)"><g><path d="M 1.835938 -12.671875 C 1.835938 -13.429688 1.800781 -14.21875 1.800781 -14.976562 C 1.800781 -15.769531 1.871094 -16.523438 1.871094 -17.316406 C 1.871094 -18.070312 1.800781 -18.863281 1.800781 -19.621094 L 1.800781 -21.960938 C 1.800781 -22.714844 1.835938 -23.507812 1.835938 -24.265625 C 1.835938 -24.445312 1.835938 -24.589844 1.871094 -24.730469 C 1.90625 -24.875 2.015625 -24.984375 2.125 -25.054688 C 2.230469 -25.128906 2.339844 -25.09375 2.484375 -25.128906 C 2.773438 -25.164062 3.058594 -25.199219 3.347656 -25.199219 C 4.285156 -25.199219 5.21875 -25.09375 6.15625 -25.09375 C 7.703125 -25.128906 8.820312 -25.164062 8.964844 -25.128906 C 9.144531 -25.128906 9.324219 -25.164062 9.46875 -25.164062 L 9.757812 -25.164062 C 9.863281 -25.128906 9.972656 -25.09375 10.042969 -25.09375 C 10.367188 -25.054688 10.65625 -24.910156 10.945312 -24.839844 C 11.230469 -24.769531 11.519531 -24.695312 11.808594 -24.589844 L 12.3125 -24.371094 C 12.421875 -24.335938 12.5625 -24.226562 12.671875 -24.15625 C 12.816406 -24.121094 12.925781 -24.046875 13.03125 -24.011719 C 13.066406 -23.976562 13.140625 -24.011719 13.175781 -24.011719 L 13.96875 -23.472656 C 14.074219 -23.363281 14.21875 -23.21875 14.363281 -23.113281 C 14.472656 -23.003906 14.617188 -22.859375 14.761719 -22.753906 C 14.902344 -22.609375 14.976562 -22.429688 15.121094 -22.285156 C 15.265625 -22.105469 15.480469 -21.960938 15.625 -21.742188 C 15.730469 -21.601562 15.839844 -21.421875 15.949219 -21.238281 C 16.09375 -21.058594 16.199219 -20.878906 16.308594 -20.699219 L 16.34375 -20.554688 C 16.488281 -20.304688 16.558594 -20.015625 16.667969 -19.726562 C 16.777344 -19.476562 16.8125 -19.222656 16.882812 -18.972656 C 16.957031 -18.792969 17.027344 -18.574219 17.0625 -18.394531 C 17.136719 -18.179688 17.101562 -17.964844 17.136719 -17.746094 C 17.136719 -17.605469 17.242188 -17.460938 17.242188 -17.28125 C 17.242188 -17.28125 17.207031 -17.28125 17.207031 -17.28125 L 17.207031 -16.558594 C 17.207031 -16.414062 17.171875 -16.273438 17.171875 -16.128906 C 17.171875 -16.019531 17.171875 -15.949219 17.171875 -15.875 L 17.0625 -15.15625 C 17.027344 -14.976562 17.027344 -14.796875 16.992188 -14.617188 C 16.921875 -14.363281 16.777344 -14.148438 16.667969 -13.894531 C 16.597656 -13.714844 16.558594 -13.5 16.488281 -13.320312 C 16.378906 -13.175781 16.308594 -12.996094 16.234375 -12.851562 C 16.164062 -12.707031 16.128906 -12.527344 16.054688 -12.382812 C 15.949219 -12.203125 15.804688 -12.097656 15.695312 -11.953125 C 15.550781 -11.734375 15.40625 -11.519531 15.265625 -11.339844 C 15.226562 -11.269531 15.226562 -11.230469 15.226562 -11.160156 C 15.191406 -11.050781 15.15625 -10.945312 15.226562 -10.835938 C 15.300781 -10.726562 15.371094 -10.621094 15.480469 -10.511719 C 15.625 -10.261719 15.839844 -10.042969 15.984375 -9.792969 C 16.09375 -9.574219 16.199219 -9.324219 16.273438 -9.109375 C 16.34375 -8.964844 16.453125 -8.855469 16.488281 -8.710938 C 16.597656 -8.460938 16.597656 -8.207031 16.667969 -7.921875 C 16.703125 -7.703125 16.847656 -7.453125 16.847656 -7.234375 C 16.882812 -7.09375 16.8125 -6.910156 16.8125 -6.769531 L 16.8125 -6.121094 C 16.8125 -5.21875 16.847656 -4.320312 16.847656 -3.457031 C 16.847656 -2.554688 16.847656 -1.65625 16.847656 -0.792969 L 16.847656 -0.503906 C 16.8125 -0.394531 16.777344 -0.289062 16.703125 -0.214844 L 16.597656 -0.109375 C 16.488281 -0.0351562 16.34375 0 16.234375 0 C 16.199219 0 16.199219 0 16.164062 0 L 12.492188 0 C 12.382812 0 12.277344 -0.0351562 12.167969 -0.0703125 C 11.988281 -0.144531 11.808594 -0.253906 11.773438 -0.46875 C 11.773438 -0.539062 11.84375 -0.648438 11.84375 -0.71875 C 11.84375 -1.546875 11.808594 -2.375 11.808594 -3.203125 C 11.808594 -4.03125 11.84375 -4.859375 11.84375 -5.6875 C 11.808594 -5.902344 11.734375 -6.15625 11.734375 -6.371094 C 11.699219 -6.695312 11.664062 -6.984375 11.554688 -7.234375 C 11.449219 -7.414062 11.375 -7.632812 11.230469 -7.777344 C 11.050781 -7.957031 10.835938 -8.0625 10.585938 -8.171875 C 10.476562 -8.242188 10.332031 -8.242188 10.222656 -8.28125 C 10.007812 -8.316406 9.792969 -8.425781 9.574219 -8.425781 L 9.539062 -8.425781 C 9.253906 -8.425781 8.964844 -8.386719 8.640625 -8.386719 C 8.351562 -8.386719 8.0625 -8.351562 7.738281 -8.351562 L 7.273438 -8.351562 C 7.199219 -8.316406 7.054688 -8.351562 6.984375 -8.28125 C 6.949219 -8.242188 6.910156 -8.207031 6.910156 -8.171875 C 6.875 -8.101562 6.875 -7.992188 6.875 -7.882812 C 6.839844 -7.128906 6.910156 -6.335938 6.910156 -5.578125 C 6.910156 -4.824219 6.875 -4.03125 6.875 -3.277344 C 6.875 -2.519531 6.910156 -1.726562 6.910156 -0.972656 C 6.910156 -0.863281 6.839844 -0.792969 6.804688 -0.683594 C 6.804688 -0.539062 6.769531 -0.394531 6.625 -0.324219 C 6.589844 -0.289062 6.515625 -0.253906 6.40625 -0.214844 C 6.335938 -0.214844 6.226562 -0.179688 6.121094 -0.179688 C 4.933594 -0.179688 3.78125 -0.214844 2.628906 -0.214844 C 2.519531 -0.214844 2.375 -0.144531 2.304688 -0.179688 C 2.089844 -0.214844 1.980469 -0.394531 1.90625 -0.613281 L 1.800781 -0.9375 C 1.800781 -1.007812 1.871094 -1.117188 1.871094 -1.1875 L 1.871094 -4.066406 C 1.871094 -5.039062 1.871094 -5.976562 1.871094 -6.949219 L 1.871094 -9.792969 C 1.871094 -10.765625 1.835938 -11.699219 1.835938 -12.671875 Z M 6.875 -16.738281 C 6.875 -15.910156 6.910156 -15.121094 6.910156 -14.292969 C 6.910156 -14.183594 6.875 -14.074219 6.875 -13.933594 L 6.875 -13.859375 C 6.875 -13.789062 6.949219 -13.753906 6.949219 -13.714844 C 6.984375 -13.644531 7.019531 -13.609375 7.09375 -13.535156 C 7.164062 -13.5 7.234375 -13.429688 7.34375 -13.429688 L 8.207031 -13.429688 C 8.496094 -13.464844 8.785156 -13.429688 9.070312 -13.464844 C 9.214844 -13.464844 9.394531 -13.429688 9.539062 -13.464844 C 9.898438 -13.535156 10.1875 -13.753906 10.511719 -13.933594 C 10.691406 -14.039062 10.90625 -14.074219 11.050781 -14.21875 C 11.160156 -14.328125 11.269531 -14.4375 11.375 -14.578125 C 11.519531 -14.722656 11.628906 -14.976562 11.734375 -15.15625 C 11.84375 -15.335938 11.878906 -15.515625 11.953125 -15.695312 C 12.023438 -15.875 12.097656 -16.054688 12.097656 -16.273438 C 12.132812 -16.414062 12.203125 -16.523438 12.203125 -16.667969 C 12.238281 -16.847656 12.167969 -16.992188 12.167969 -17.171875 C 12.132812 -17.425781 12.058594 -17.640625 11.988281 -17.890625 C 11.914062 -18.109375 11.808594 -18.359375 11.664062 -18.574219 L 11.304688 -19.007812 C 11.195312 -19.152344 10.980469 -19.222656 10.835938 -19.332031 C 10.65625 -19.441406 10.511719 -19.546875 10.332031 -19.65625 L 9.828125 -19.871094 C 9.683594 -19.90625 9.574219 -19.945312 9.433594 -19.945312 C 9.359375 -19.980469 9.253906 -20.050781 9.179688 -20.050781 C 9.070312 -20.050781 8.929688 -20.015625 8.820312 -20.015625 L 7.414062 -20.015625 C 7.34375 -20.015625 7.273438 -19.980469 7.199219 -19.980469 C 7.054688 -19.980469 6.984375 -19.835938 6.949219 -19.726562 C 6.949219 -19.546875 6.875 -19.402344 6.875 -19.222656 Z M 6.875 -16.738281 "/></g></g></g><g fill="#f2f2f2" fill-opacity="1"><g transform="translate(252.12038, 292.055928)"><g><path d="M 7.882812 -25.378906 C 7.632812 -25.378906 7.378906 -25.308594 7.164062 -25.308594 C 7.128906 -25.308594 7.128906 -25.308594 7.09375 -25.308594 L 6.949219 -25.308594 C 6.910156 -25.308594 6.875 -25.308594 6.839844 -25.308594 L 6.769531 -25.308594 C 6.625 -25.308594 6.445312 -25.308594 6.265625 -25.273438 C 5.976562 -25.199219 5.6875 -25.09375 5.398438 -24.984375 C 5.148438 -24.910156 4.859375 -24.804688 4.609375 -24.660156 C 4.355469 -24.515625 4.066406 -24.445312 3.851562 -24.265625 C 3.671875 -24.121094 3.457031 -23.941406 3.277344 -23.761719 L 3.3125 -23.6875 C 3.203125 -23.617188 3.058594 -23.578125 3.023438 -23.507812 C 3.023438 -23.507812 3.058594 -23.472656 3.058594 -23.4375 L 2.953125 -23.363281 C 2.84375 -23.257812 2.773438 -23.183594 2.664062 -23.074219 L 2.269531 -22.570312 C 2.125 -22.355469 1.980469 -22.140625 1.871094 -21.886719 C 1.800781 -21.816406 1.800781 -21.707031 1.726562 -21.601562 C 1.621094 -21.421875 1.511719 -21.203125 1.441406 -20.988281 C 1.332031 -20.773438 1.332031 -20.519531 1.261719 -20.304688 L 1.152344 -19.945312 C 1.117188 -19.765625 1.007812 -19.621094 0.972656 -19.441406 C 0.9375 -19.261719 0.972656 -19.078125 0.972656 -18.898438 C 0.9375 -18.792969 0.9375 -18.648438 0.898438 -18.503906 C 0.898438 -18.503906 0.9375 -18.46875 0.898438 -18.46875 C 0.898438 -18.324219 0.898438 -18.179688 0.9375 -18.070312 C 0.9375 -17.890625 0.898438 -17.746094 0.898438 -17.605469 C 0.898438 -17.53125 0.972656 -17.425781 0.972656 -17.351562 L 1.078125 -16.777344 C 1.117188 -16.632812 1.078125 -16.453125 1.117188 -16.308594 C 1.1875 -16.09375 1.332031 -15.910156 1.402344 -15.730469 C 1.441406 -15.589844 1.441406 -15.445312 1.511719 -15.335938 C 1.585938 -15.121094 1.691406 -14.941406 1.800781 -14.722656 C 1.90625 -14.578125 1.980469 -14.363281 2.125 -14.148438 C 2.230469 -13.96875 2.410156 -13.824219 2.554688 -13.644531 C 2.699219 -13.429688 2.808594 -13.175781 2.953125 -12.960938 C 3.058594 -12.78125 3.203125 -12.636719 3.347656 -12.457031 C 3.492188 -12.277344 3.601562 -12.058594 3.742188 -11.878906 C 3.851562 -11.734375 3.925781 -11.554688 4.03125 -11.410156 L 4.570312 -10.765625 C 4.753906 -10.476562 4.894531 -10.1875 5.113281 -9.898438 C 5.257812 -9.71875 5.398438 -9.574219 5.507812 -9.359375 C 5.6875 -9.144531 5.902344 -8.890625 6.046875 -8.640625 C 6.191406 -8.425781 6.265625 -8.207031 6.335938 -7.957031 C 6.40625 -7.738281 6.445312 -7.523438 6.445312 -7.308594 C 6.445312 -7.164062 6.480469 -7.054688 6.480469 -6.910156 L 6.480469 -6.839844 C 6.480469 -6.730469 6.40625 -6.660156 6.371094 -6.589844 C 6.335938 -6.480469 6.265625 -6.371094 6.226562 -6.226562 C 6.15625 -6.121094 6.085938 -5.976562 5.976562 -5.832031 C 5.832031 -5.652344 5.6875 -5.507812 5.507812 -5.363281 C 5.363281 -5.292969 5.21875 -5.148438 5.039062 -5.074219 C 4.824219 -4.96875 4.570312 -4.859375 4.320312 -4.789062 C 4.105469 -4.714844 3.886719 -4.714844 3.671875 -4.714844 C 3.527344 -4.679688 3.421875 -4.679688 3.277344 -4.679688 C 3.238281 -4.679688 3.132812 -4.609375 3.097656 -4.609375 C 3.058594 -4.609375 3.023438 -4.609375 3.023438 -4.609375 L 2.988281 -4.609375 C 2.878906 -4.609375 2.808594 -4.679688 2.699219 -4.679688 C 2.628906 -4.679688 2.519531 -4.714844 2.410156 -4.714844 C 2.375 -4.714844 2.375 -4.714844 2.339844 -4.714844 L 2.195312 -4.714844 C 2.160156 -4.714844 2.125 -4.714844 2.089844 -4.714844 L 2.015625 -4.714844 C 1.90625 -4.714844 1.65625 -4.753906 1.585938 -4.714844 C 1.511719 -4.644531 1.511719 -4.570312 1.511719 -4.464844 C 1.511719 -4.390625 1.441406 -4.285156 1.441406 -4.210938 L 1.441406 -0.828125 C 1.441406 -0.71875 1.511719 -0.613281 1.546875 -0.503906 C 1.546875 -0.359375 1.621094 -0.289062 1.726562 -0.214844 C 1.800781 -0.179688 1.90625 -0.109375 2.015625 -0.0703125 C 2.195312 0 2.375 0.0351562 2.554688 0.0703125 C 2.734375 0.109375 2.914062 0.109375 3.023438 0.144531 C 3.203125 0.179688 3.382812 0.253906 3.527344 0.289062 L 3.601562 0.289062 C 3.636719 0.289062 3.707031 0.253906 3.78125 0.253906 L 4.609375 0.289062 C 4.609375 0.289062 4.609375 0.289062 4.644531 0.289062 L 4.644531 0.214844 C 4.644531 0.214844 4.679688 0.214844 4.679688 0.214844 L 4.859375 0.214844 C 4.933594 0.253906 4.96875 0.253906 5.039062 0.253906 L 5.074219 0.253906 C 5.328125 0.214844 5.542969 0.179688 5.796875 0.109375 C 6.121094 0.0351562 6.40625 -0.144531 6.730469 -0.289062 C 7.019531 -0.394531 7.308594 -0.433594 7.523438 -0.574219 C 7.703125 -0.683594 7.882812 -0.792969 8.027344 -0.898438 L 8.316406 -1.117188 C 8.460938 -1.222656 8.640625 -1.332031 8.785156 -1.476562 C 8.890625 -1.546875 9 -1.65625 9.109375 -1.765625 C 9.289062 -1.90625 9.46875 -2.050781 9.648438 -2.269531 C 9.71875 -2.339844 9.792969 -2.449219 9.863281 -2.554688 C 10.007812 -2.699219 10.117188 -2.878906 10.222656 -3.058594 C 10.367188 -3.238281 10.402344 -3.457031 10.511719 -3.671875 C 10.65625 -3.960938 10.871094 -4.210938 10.980469 -4.5 C 11.089844 -4.824219 11.195312 -5.148438 11.269531 -5.472656 L 11.375 -6.011719 C 11.410156 -6.191406 11.410156 -6.371094 11.410156 -6.550781 C 11.449219 -6.695312 11.449219 -6.839844 11.484375 -6.984375 L 11.449219 -7.019531 C 11.484375 -7.164062 11.484375 -7.308594 11.484375 -7.453125 L 11.484375 -7.882812 C 11.484375 -7.992188 11.449219 -8.0625 11.449219 -8.171875 C 11.410156 -8.28125 11.449219 -8.386719 11.410156 -8.496094 C 11.375 -8.710938 11.339844 -8.964844 11.269531 -9.179688 L 11.050781 -9.898438 C 11.015625 -10.007812 10.945312 -10.117188 10.871094 -10.222656 C 10.800781 -10.402344 10.691406 -10.621094 10.585938 -10.800781 C 10.546875 -10.90625 10.476562 -11.015625 10.402344 -11.125 C 10.296875 -11.269531 10.261719 -11.410156 10.152344 -11.554688 C 10.042969 -11.699219 9.863281 -11.808594 9.792969 -11.988281 C 9.648438 -12.132812 9.574219 -12.3125 9.46875 -12.492188 L 9.179688 -12.925781 C 9.035156 -13.066406 8.964844 -13.246094 8.855469 -13.429688 C 8.710938 -13.609375 8.566406 -13.753906 8.425781 -13.96875 C 8.316406 -14.113281 8.171875 -14.257812 8.0625 -14.4375 C 7.921875 -14.617188 7.8125 -14.761719 7.667969 -14.941406 L 7.308594 -15.371094 C 7.234375 -15.515625 7.128906 -15.660156 7.019531 -15.804688 C 6.910156 -15.984375 6.804688 -16.164062 6.660156 -16.308594 C 6.550781 -16.488281 6.480469 -16.667969 6.371094 -16.8125 C 6.300781 -16.921875 6.265625 -17.027344 6.191406 -17.171875 L 5.976562 -17.675781 C 5.941406 -17.855469 5.867188 -18.035156 5.867188 -18.253906 L 5.902344 -18.394531 C 5.902344 -18.574219 6.011719 -18.757812 6.085938 -18.9375 C 6.121094 -19.042969 6.085938 -19.152344 6.121094 -19.261719 C 6.15625 -19.402344 6.265625 -19.511719 6.335938 -19.621094 L 6.589844 -19.945312 C 6.695312 -20.050781 6.839844 -20.160156 6.984375 -20.230469 C 7.128906 -20.375 7.273438 -20.449219 7.414062 -20.554688 C 7.632812 -20.628906 7.847656 -20.699219 8.101562 -20.734375 C 8.242188 -20.734375 8.351562 -20.773438 8.460938 -20.773438 L 8.566406 -20.773438 C 8.640625 -20.734375 8.746094 -20.699219 8.820312 -20.699219 L 8.855469 -20.699219 C 9 -20.734375 9.070312 -20.808594 9.109375 -20.914062 C 9.144531 -20.988281 9.144531 -21.058594 9.144531 -21.132812 C 9.144531 -21.742188 9.179688 -22.355469 9.179688 -22.96875 L 9.109375 -22.96875 C 9.109375 -23.507812 9.109375 -24.046875 9.109375 -24.589844 L 9.109375 -24.804688 C 9.109375 -24.910156 9.144531 -25.019531 9.070312 -25.128906 C 9.035156 -25.164062 8.964844 -25.164062 8.929688 -25.199219 C 8.820312 -25.234375 8.746094 -25.273438 8.675781 -25.273438 C 8.675781 -25.308594 8.640625 -25.308594 8.640625 -25.308594 C 8.605469 -25.308594 8.605469 -25.273438 8.566406 -25.273438 C 8.53125 -25.273438 8.496094 -25.273438 8.460938 -25.273438 L 8.425781 -25.273438 C 8.425781 -25.273438 7.777344 -25.414062 7.882812 -25.378906 Z M 7.882812 -25.378906 "/></g></g></g></svg>