{
	"asset":{
		"generator":"Khronos glTF Blender I/O v3.5.30",
		"version":"2.0"
	},
	"scene":0,
	"scenes":[
		{
			"name":"Scene",
			"nodes":[
				0
			]
		}
	],
	"nodes":[
		{
			"mesh":0,
			"name":"model_0",
			"rotation":[
				0.7071068286895752,
				0,
				0,
				0.7071068286895752
			]
		}
	],
	"materials":[
		{
			"doubleSided":true,
			"name":"Ferro",
			"pbrMetallicRoughness":{
				"baseColorTexture":{
					"index":0
				},
				"metallicFactor":0,
				"roughnessFactor":0.5
			}
		}
	],
	"meshes":[
		{
			"name":"model_0",
			"primitives":[
				{
					"attributes":{
						"POSITION":0,
						"TEXCOORD_0":1,
						"NORMAL":2
					},
					"indices":3,
					"material":0
				}
			]
		}
	],
	"textures":[
		{
			"sampler":0,
			"source":0
		}
	],
	"images":[
		{
			"mimeType":"image/png",
			"name":"albatar_texture",
			"uri":"albatar_texture.png"
		}
	],
	"accessors":[
		{
			"bufferView":0,
			"componentType":5126,
			"count":60425,
			"max":[
				230.40386962890625,
				115.59420776367188,
				197.5970001220703
			],
			"min":[
				-230.40499877929688,
				-115.59500122070312,
				-296.90618896484375
			],
			"type":"VEC3"
		},
		{
			"bufferView":1,
			"componentType":5126,
			"count":60425,
			"type":"VEC2"
		},
		{
			"bufferView":2,
			"componentType":5126,
			"count":60425,
			"type":"VEC3"
		},
		{
			"bufferView":3,
			"componentType":5123,
			"count":102537,
			"type":"SCALAR"
		}
	],
	"bufferViews":[
		{
			"buffer":0,
			"byteLength":725100,
			"byteOffset":0,
			"target":34962
		},
		{
			"buffer":0,
			"byteLength":483400,
			"byteOffset":725100,
			"target":34962
		},
		{
			"buffer":0,
			"byteLength":725100,
			"byteOffset":1208500,
			"target":34962
		},
		{
			"buffer":0,
			"byteLength":205074,
			"byteOffset":1933600,
			"target":34963
		}
	],
	"samplers":[
		{
			"magFilter":9729,
			"minFilter":9987
		}
	],
	"buffers":[
		{
			"byteLength":2138676,
			"uri":"untitled.bin"
		}
	]
}
